<svg width="2051" height="1556" viewBox="0 0 2051 1556" fill="none" xmlns="http://www.w3.org/2000/svg">
<g filter="url(#filter0_d)">
<path d="M407.043 1544.99V1537.28H371.092C353.479 1537.46 336.287 1531.45 322.101 1520.16C316.358 1517.36 311.007 1513.7 306.201 1509.3L304.34 1509.72L302.076 1510.21C301.322 1510.36 300.569 1510.52 299.815 1510.66C299.061 1510.79 298.308 1510.95 297.545 1511.07L295.281 1511.44C294.53 1511.56 293.774 1511.67 293.011 1511.77L290.738 1512.08C289.984 1512.18 289.222 1512.26 288.468 1512.34C287.714 1512.42 286.949 1512.5 286.195 1512.56L283.925 1512.75L281.664 1512.9C280.425 1512.96 279.186 1513.03 277.939 1513.06C276.691 1513.09 275.463 1513.12 274.216 1513.12H270.493C269.228 1513.12 268.025 1513.06 266.769 1512.99C265.512 1512.92 264.312 1512.86 263.046 1512.77C261.78 1512.68 260.587 1512.57 259.321 1512.46C258.055 1512.35 256.884 1512.2 255.674 1512.05C254.463 1511.89 253.234 1511.73 252.033 1511.54C250.832 1511.35 249.614 1511.16 248.403 1510.95C247.193 1510.74 245.991 1510.5 244.79 1510.26C243.589 1510.02 242.388 1509.75 241.197 1509.48C240.005 1509.21 238.806 1508.9 237.633 1508.59C236.46 1508.28 235.259 1507.97 234.077 1507.58C232.894 1507.2 231.722 1506.89 230.55 1506.53C229.377 1506.16 228.204 1505.77 227.05 1505.38C225.895 1504.99 224.722 1504.57 223.568 1504.15C222.414 1503.73 221.258 1503.27 220.123 1502.82C218.987 1502.37 217.833 1501.89 216.707 1501.4C215.581 1500.92 214.445 1500.4 213.318 1499.9C212.192 1499.41 211.074 1498.89 209.966 1498.31C208.858 1497.73 207.742 1497.2 206.653 1496.64C205.564 1496.08 204.456 1495.47 203.366 1494.87L200.128 1493.01C199.057 1492.38 197.996 1491.74 196.926 1491.07C195.855 1490.41 194.811 1489.75 193.778 1489.06C192.745 1488.36 191.684 1487.67 190.66 1486.95C189.636 1486.24 188.604 1485.51 187.59 1484.77C186.575 1484.02 185.559 1483.28 184.563 1482.5C183.567 1481.73 182.572 1480.95 181.585 1480.16C180.599 1479.36 179.629 1478.56 178.651 1477.73C177.674 1476.9 176.726 1476.07 175.767 1475.22C174.809 1474.38 173.905 1473.51 172.974 1472.64C172.044 1471.76 171.112 1470.87 170.181 1469.97C169.25 1469.06 168.32 1468.15 167.463 1467.22C166.607 1466.28 165.677 1465.36 164.811 1464.4C163.945 1463.44 163.07 1462.48 162.213 1461.5C161.357 1460.52 160.51 1459.48 159.673 1458.48C158.835 1457.47 158.024 1456.46 157.205 1455.46C156.385 1454.45 155.584 1453.44 154.793 1452.34C154.002 1451.23 153.23 1450.21 152.448 1449.13C151.666 1448.06 150.922 1446.97 150.168 1445.86C149.414 1444.75 148.688 1443.65 147.962 1442.51C147.236 1441.37 146.519 1440.24 145.83 1439.1C145.141 1437.95 144.434 1436.78 143.764 1435.6C143.094 1434.42 142.413 1433.23 141.771 1432.04C141.129 1430.84 140.467 1429.63 139.844 1428.4C139.22 1427.17 138.606 1425.94 137.983 1424.7C137.359 1423.45 136.792 1422.19 136.214 1420.92C135.637 1419.65 135.068 1418.38 134.537 1417.1C134.007 1415.83 133.476 1414.55 132.965 1413.26C132.453 1411.97 131.96 1410.68 131.485 1409.4C131.01 1408.12 130.555 1406.81 130.108 1405.51C129.661 1404.22 129.233 1402.93 128.824 1401.62C128.414 1400.31 128.022 1399.02 127.631 1397.71C127.24 1396.4 126.896 1395.09 126.551 1393.77C126.207 1392.46 125.872 1391.15 125.556 1389.83C125.239 1388.51 124.95 1387.2 124.624 1385.89C124.298 1384.58 124.084 1383.25 123.833 1381.93C123.582 1380.61 123.35 1379.3 123.126 1377.98C122.903 1376.66 122.697 1375.33 122.51 1373.95C122.324 1372.57 122.157 1371.3 121.999 1369.98C121.841 1368.66 121.702 1367.33 121.572 1365.95C121.441 1364.57 121.338 1363.31 121.235 1361.99C121.133 1360.67 121.06 1359.33 120.994 1357.96C120.929 1356.59 120.882 1355.32 120.844 1354C120.807 1352.68 120.79 1351.36 120.781 1350.04C120.772 1348.73 120.781 1347.41 120.781 1346.1C120.781 1344.79 120.836 1343.46 120.892 1342.15C120.948 1340.84 121.013 1339.53 121.097 1338.21C121.181 1336.89 121.274 1335.6 121.385 1334.29C121.497 1332.98 121.618 1331.68 121.767 1330.38C121.916 1329.08 122.065 1327.78 122.242 1326.48C122.419 1325.18 122.594 1323.9 122.79 1322.61C122.985 1321.32 123.201 1320.03 123.424 1318.75C123.647 1317.47 123.898 1316.19 124.149 1314.91C124.4 1313.63 124.672 1312.37 124.951 1311.1C125.23 1309.83 125.527 1308.57 125.881 1307.31C126.234 1306.05 126.515 1304.79 126.812 1303.55C127.11 1302.3 127.511 1301.05 127.865 1299.8C128.218 1298.55 128.608 1297.32 129.008 1296.09C129.408 1294.87 129.809 1293.64 130.228 1292.42C130.647 1291.2 131.084 1289.98 131.53 1288.76C131.977 1287.55 132.463 1286.36 132.91 1285.16C133.357 1283.96 133.841 1282.76 134.371 1281.59C134.902 1280.41 135.386 1279.22 135.917 1278.04C136.447 1276.86 136.985 1275.7 137.544 1274.55C138.102 1273.39 138.671 1272.23 139.248 1271.08C139.826 1269.94 140.421 1268.8 141.026 1267.68C141.631 1266.56 142.247 1265.42 142.889 1264.31C143.531 1263.19 144.174 1262.08 144.825 1260.98C145.477 1259.89 146.155 1258.79 146.834 1257.7C147.514 1256.61 148.204 1255.55 148.921 1254.48C149.638 1253.41 150.344 1252.34 151.08 1251.3C151.815 1250.25 152.551 1249.2 153.305 1248.18C154.059 1247.15 154.841 1246.16 155.623 1245.16C156.405 1244.15 157.195 1243.14 158.004 1242.13C158.814 1241.13 159.635 1240.12 160.463 1239.18C161.292 1238.25 162.139 1237.24 162.995 1236.28C163.852 1235.33 164.718 1234.38 165.593 1233.45C166.468 1232.51 167.36 1231.59 168.263 1230.68C169.166 1229.76 170.069 1228.85 170.999 1227.97L173.793 1225.32C174.723 1224.44 175.701 1223.59 176.679 1222.74C177.656 1221.9 178.633 1221.06 179.629 1220.23C180.625 1219.41 181.623 1218.59 182.647 1217.8C183.671 1217 184.684 1216.21 185.726 1215.43C186.769 1214.66 187.822 1213.89 188.874 1213.15C189.926 1212.4 191.005 1211.66 192.094 1210.93C193.183 1210.21 194.273 1209.5 195.38 1208.8C196.488 1208.09 197.613 1207.41 198.73 1206.78C199.847 1206.16 201.003 1205.46 202.157 1204.77C203.312 1204.07 204.475 1203.5 205.648 1202.89C206.821 1202.27 207.993 1201.67 209.175 1201.08C210.358 1200.5 211.541 1199.95 212.723 1199.4C213.905 1198.86 215.097 1198.32 216.298 1197.81C217.499 1197.3 218.672 1196.8 219.882 1196.32C221.092 1195.84 222.283 1195.38 223.484 1194.94C224.685 1194.5 225.885 1194.09 227.095 1193.67C228.305 1193.26 229.514 1192.88 230.725 1192.5C231.935 1192.13 233.155 1191.77 234.365 1191.44L238.015 1190.43C239.235 1190.09 240.452 1189.84 241.672 1189.56C242.891 1189.29 244.12 1189.04 245.34 1188.79C246.559 1188.54 247.789 1188.34 249.065 1188.12C250.34 1187.91 251.512 1187.73 252.787 1187.56L256.455 1187.09C257.675 1186.94 258.912 1186.83 260.178 1186.72C261.444 1186.62 262.637 1186.52 263.903 1186.44C265.169 1186.36 266.359 1186.31 267.625 1186.28C268.891 1186.25 270.082 1186.21 271.348 1186.2C272.614 1186.19 273.797 1186.2 275.016 1186.2C276.236 1186.2 277.456 1186.25 278.675 1186.31C279.894 1186.37 281.115 1186.44 282.325 1186.52C283.535 1186.6 284.753 1186.71 285.972 1186.83C287.192 1186.94 288.394 1187.08 289.604 1187.23L293.224 1187.72C294.435 1187.9 295.626 1188.1 296.836 1188.32C298.046 1188.53 299.228 1188.75 300.42 1188.99C301.611 1189.23 302.803 1189.48 303.995 1189.76C305.186 1190.03 306.369 1190.31 307.542 1190.61C308.715 1190.91 309.896 1191.24 311.069 1191.56C312.242 1191.88 313.415 1192.23 314.578 1192.56C315.742 1192.9 316.906 1193.3 318.06 1193.69C319.214 1194.09 320.378 1194.49 321.523 1194.91C322.668 1195.33 323.813 1195.77 324.948 1196.22C326.084 1196.67 327.22 1197.14 328.346 1197.61C329.472 1198.08 330.599 1198.62 331.716 1199.09C332.833 1199.56 333.949 1200.1 335.057 1200.65C336.165 1201.2 337.263 1201.74 338.352 1202.3C339.441 1202.87 340.541 1203.44 341.62 1204.03C342.7 1204.63 343.779 1205.23 344.85 1205.86C345.92 1206.48 346.982 1207.1 348.043 1207.76C349.104 1208.41 350.157 1209.07 351.2 1209.77C352.242 1210.48 353.275 1211.13 354.309 1211.79C355.342 1212.44 356.357 1213.2 357.372 1213.93C358.387 1214.67 359.392 1215.4 360.388 1216.16C361.384 1216.91 362.387 1217.69 363.374 1218.47C364.361 1219.26 365.331 1220.05 366.308 1220.87C367.286 1221.68 368.233 1222.5 369.192 1223.35C370.151 1224.19 371.054 1225.03 371.985 1225.89L372.526 1226.4V786.128C358.829 779.787 345.642 772.226 333.103 763.523C329.463 760.966 325.88 758.307 322.398 755.569L295.868 799.812C299.124 804.294 301.393 809.522 302.497 815.097C303.455 819.931 303.515 824.923 302.676 829.784C301.837 834.644 300.115 839.276 297.608 843.411L102.591 1173.58C98.146 1181.14 91.3401 1186.71 83.4141 1189.29C82.5378 1189.62 81.6472 1189.9 80.7437 1190.13C78.5693 1190.68 76.3382 1190.93 74.1053 1190.88H73.5462C66.9396 1190.85 60.4788 1188.78 54.9287 1184.9L26.398 1164.76C22.5487 1162.1 19.2254 1158.63 16.6211 1154.57C14.0167 1150.51 12.1841 1145.93 11.2258 1141.09C10.2728 1136.26 10.2143 1131.27 11.0531 1126.41C11.8919 1121.55 13.6103 1116.91 16.112 1112.78L211.13 782.614C215.768 774.809 222.923 769.147 231.204 766.728C239.485 764.309 248.302 765.306 255.942 769.524L285.163 720.085C183.586 602.66 176.902 395.067 278.032 223.611C341.415 116.386 436.394 41.1504 538.613 17.1962C559.732 11.7553 581.365 9.00455 603.074 9.00001C655.544 8.98502 706.944 25.0438 751.326 55.3175C823.664 106.206 866.141 191.693 876.371 288.818H1682.32C1683.36 288.873 1684.34 289.372 1685.03 290.205C1685.73 291.037 1686.1 292.136 1686.05 293.259V315.018H1708.39V1468.63C1707.95 1489.34 1699.92 1509.02 1686.08 1523.33C1672.23 1537.65 1653.7 1545.44 1634.55 1544.98L407.043 1544.99ZM380.233 1234.17C381.108 1235.12 381.974 1236.07 382.839 1237.03C383.705 1237.99 384.551 1238.98 385.389 1239.98C386.227 1240.98 387.056 1241.99 387.876 1243C388.695 1244.01 389.504 1245.01 390.305 1246.1C391.106 1247.19 391.887 1248.2 392.659 1249.26C393.432 1250.33 394.205 1251.42 394.959 1252.52C395.713 1253.61 396.458 1254.72 397.184 1255.83C397.91 1256.94 398.636 1258.08 399.343 1259.22C400.051 1260.36 400.75 1261.52 401.43 1262.69C402.109 1263.85 402.789 1265.03 403.45 1266.23C404.111 1267.43 404.753 1268.63 405.395 1269.83C406.038 1271.04 406.503 1271.98 407.043 1273.08V799.127C397.893 796.408 388.88 793.168 380.046 789.421V1233.94L380.233 1234.17ZM23.5595 1117.85C19.9489 1123.75 18.5293 1130.9 19.5846 1137.88C19.5921 1131.58 21.2023 1125.4 24.239 1120.03L57.7514 1059.83L23.5595 1117.85ZM285.804 816.708C287.255 821.474 287.734 826.524 287.207 831.509C286.679 836.494 285.16 841.297 282.752 845.586L225.411 948.421L290.422 838.366C292.316 835.264 293.619 831.785 294.259 828.133C294.898 824.48 294.859 820.727 294.145 817.09C293.525 813.968 292.422 810.982 290.879 808.26L285.804 816.708ZM236.274 775.052C240.39 775.731 244.31 777.407 247.742 779.956L249.222 781.073L251.353 777.459C247.9 775.649 244.114 774.709 240.276 774.71C238.939 774.709 237.605 774.82 236.283 775.042L236.274 775.052ZM878.437 315.018H1678.72V297.689H877.321C877.805 303.415 878.179 309.192 878.446 315.018H878.437ZM764.228 207.692H777.168L776.041 205.386C774.433 202.144 772.766 198.939 771.034 195.771C753.407 163.165 728.665 135.723 698.973 115.842C692.264 111.363 685.328 107.296 678.197 103.659C679.276 104.344 680.346 105.059 681.426 105.773C716.995 129.757 745.398 164.35 763.214 205.386L764.228 207.692ZM1887.31 1268.56C1882.28 1268.38 1877.23 1267.94 1872.18 1267.24C1867.14 1266.53 1862.07 1265.55 1857.03 1264.29C1851.98 1263.03 1846.95 1261.49 1841.95 1259.66C1836.95 1257.84 1831.97 1255.72 1827.05 1253.32C1825.14 1252.38 1823.26 1251.42 1821.39 1250.41C1819.52 1249.4 1817.66 1248.4 1815.88 1247.3C1814.09 1246.2 1812.27 1245.13 1810.51 1243.99C1808.75 1242.85 1807.02 1241.68 1805.31 1240.48C1802.62 1238.6 1800 1236.63 1797.44 1234.59C1794.89 1232.55 1792.4 1230.44 1790 1228.26C1787.58 1226.08 1785.22 1223.84 1782.94 1221.51C1780.65 1219.2 1778.45 1216.82 1776.31 1214.38C1773.59 1211.28 1770.98 1208.08 1768.48 1204.78C1765.99 1201.48 1763.62 1198.1 1761.38 1194.65C1759.15 1191.19 1757.03 1187.64 1755.03 1184.03C1753.03 1180.41 1751.17 1176.72 1749.45 1172.95C1748.35 1171 1747.3 1169 1746.27 1167.01C1745.25 1165.02 1744.27 1162.98 1743.32 1160.97C1742.37 1158.95 1741.46 1156.87 1740.61 1154.8C1739.77 1152.72 1738.93 1150.64 1738.15 1148.52C1736.35 1143.68 1734.77 1138.75 1733.41 1133.75C1732.04 1128.75 1730.91 1123.72 1730 1118.65C1729.08 1113.54 1728.39 1108.39 1727.95 1103.21C1727.51 1098.04 1727.3 1092.83 1727.32 1087.6C1727.34 1082.37 1727.61 1077.15 1728.13 1071.95C1728.64 1066.7 1729.41 1061.49 1730.42 1056.33C1731.44 1051.11 1732.71 1045.95 1734.23 1040.87C1735.78 1035.72 1737.57 1030.65 1739.6 1025.69C1741.63 1020.74 1743.89 1015.91 1746.38 1011.22C1748.84 1006.62 1751.51 1002.17 1754.39 997.87C1757.22 993.638 1760.25 989.568 1763.47 985.676C1766.66 981.825 1770.03 978.151 1773.57 974.671C1777.08 971.215 1780.74 967.955 1784.56 964.904C1788.37 961.856 1792.3 959.023 1796.34 956.406C1800.39 953.788 1804.56 951.371 1808.83 949.196C1813.09 947.021 1817.47 945.068 1821.92 943.336C1826.37 941.604 1830.91 940.114 1835.51 938.845C1840.1 937.577 1844.81 936.549 1849.47 935.764C1854.12 934.979 1858.97 934.435 1863.77 934.133C1868.57 933.831 1873.41 933.78 1878.27 933.982C1883.13 934.183 1888.01 934.646 1892.89 935.351C1897.81 936.062 1902.69 937.04 1907.52 938.281C1912.38 939.53 1917.23 941.037 1922.07 942.802C1926.91 944.568 1931.7 946.618 1936.43 948.955C1937.97 949.706 1939.49 950.482 1940.99 951.28C1942.5 952.086 1943.99 952.901 1945.45 953.747C1946.91 954.593 1948.38 955.459 1949.81 956.345C1951.24 957.231 1952.67 958.148 1954.07 959.084C1958.21 961.366 1962.22 963.82 1966.1 966.444C1969.98 969.069 1973.73 971.838 1977.34 974.752C1980.96 977.678 1984.43 980.742 1987.76 983.944C1991.09 987.146 1994.29 990.479 1997.35 993.943C2000.82 997.876 2004.1 1001.96 2007.18 1006.19C2010.26 1010.42 2013.15 1014.78 2015.84 1019.28C2018.54 1023.76 2021.02 1028.37 2023.29 1033.09C2025.56 1037.82 2027.63 1042.63 2029.5 1047.54C2031.36 1052.45 2033 1057.44 2034.42 1062.51C2035.83 1067.58 2037.02 1072.71 2037.99 1077.89C2038.96 1083.07 2039.7 1088.3 2040.21 1093.58C2040.71 1098.85 2040.98 1104.16 2041 1109.47C2041.02 1114.8 2040.79 1120.14 2040.32 1125.45C2039.85 1130.81 2039.12 1136.14 2038.15 1141.41C2037.16 1146.76 2035.92 1152.05 2034.43 1157.25C2032.91 1162.55 2031.14 1167.76 2029.11 1172.85C2027.09 1177.94 2024.82 1182.92 2022.32 1187.76C2019.87 1192.51 2017.19 1197.11 2014.29 1201.56C2011.43 1205.93 2008.37 1210.15 2005.11 1214.18C2001.88 1218.18 1998.46 1221.99 1994.87 1225.61C1991.3 1229.21 1987.58 1232.61 1983.7 1235.8C1979.84 1238.99 1975.82 1241.96 1971.68 1244.7C1967.53 1247.45 1963.27 1249.97 1958.89 1252.26C1954.52 1254.56 1950.04 1256.62 1945.45 1258.46C1940.87 1260.29 1936.22 1261.88 1931.49 1263.23C1926.76 1264.58 1921.95 1265.68 1917.07 1266.53C1912.19 1267.39 1907.27 1268 1902.32 1268.34C1898.99 1268.57 1895.64 1268.69 1892.28 1268.7C1890.63 1268.64 1888.98 1268.59 1887.33 1268.55L1887.31 1268.56Z" fill="white"/>
</g>
<path d="M1680.86 288.789H374.741C373.711 288.867 372.748 289.372 372.054 290.2C371.36 291.027 370.989 292.113 371.018 293.23V1522.35C370.967 1523.47 371.331 1524.57 372.03 1525.4C372.728 1526.23 373.703 1526.73 374.741 1526.79H1617.21C1626.25 1526.73 1635.17 1524.59 1643.39 1520.53C1651.61 1516.47 1658.95 1510.57 1664.91 1503.22C1677.76 1487.44 1684.77 1467.07 1684.57 1446.03V293.23C1684.62 292.107 1684.25 291.008 1683.55 290.175C1682.86 289.343 1681.88 288.844 1680.84 288.789H1680.86ZM378.446 297.67H1677.16V1446.02C1677.26 1464.69 1671 1482.74 1659.56 1496.72C1654.26 1503.23 1647.75 1508.46 1640.45 1512.07C1633.15 1515.67 1625.23 1517.56 1617.21 1517.62H378.446V297.67Z" fill="#303B3C"/>
<path d="M1634.48 1537.28C1593.52 1537.28 1560.26 1506.46 1560.26 1468.43V1399.66H295.31V1468.43C295.31 1506.46 328.533 1537.28 369.529 1537.28H1634.48Z" fill="#D1D3D4"/>
<path d="M1553.56 1381.15H284.484C283.501 1381.17 282.562 1381.59 281.867 1382.35C281.172 1383.1 280.775 1384.11 280.76 1385.18V1453.95C280.839 1473.22 287.968 1491.68 300.59 1505.29C313.211 1518.9 330.299 1526.55 348.119 1526.57H1617.21C1618.2 1526.57 1619.14 1526.14 1619.84 1525.39C1620.54 1524.63 1620.93 1523.61 1620.93 1522.54C1620.93 1521.47 1620.54 1520.45 1619.84 1519.69C1619.14 1518.94 1618.2 1518.51 1617.21 1518.51C1601.38 1518.45 1586.21 1511.62 1575.01 1499.52C1563.81 1487.42 1557.49 1471.03 1557.41 1453.91V1385.18C1557.41 1384.64 1557.31 1384.1 1557.11 1383.6C1556.92 1383.1 1556.63 1382.65 1556.27 1382.28C1555.91 1381.9 1555.49 1381.61 1555.02 1381.41C1554.55 1381.22 1554.05 1381.13 1553.55 1381.15H1553.56ZM288.198 1389.2H1550V1453.97C1550.05 1467.32 1553.48 1480.4 1559.92 1491.79C1566.36 1503.18 1575.57 1512.45 1586.54 1518.57H348.137C332.244 1518.55 317.007 1511.71 305.769 1499.56C294.531 1487.4 288.208 1470.92 288.189 1453.73L288.198 1389.2Z" fill="#303B3C"/>
<path d="M1011.17 1207.48H1093.42V1296.15H1011.17V1207.48Z" fill="#801822"/>
<path d="M1134.34 1056.6H1216.59V1296.14H1134.34V1056.6Z" fill="#1652F0"/>
<path d="M572.347 1176.15H683.661V1296.15H572.347V1176.15Z" fill="#E0E0E0"/>
<path d="M572.347 996.611H683.661V1116.6H572.347V996.611Z" fill="#801822"/>
<path d="M1257.42 1149.12H1339.67V1296.12H1257.42V1149.12Z" fill="#098551"/>
<path d="M738.909 1176.15H850.223V1296.15H738.909V1176.15Z" fill="#098551"/>
<path d="M1380.5 1069.38H1462.75V1296.14H1380.5V1069.38Z" fill="#801822"/>
<path d="M738.909 996.611H850.223V1116.6H738.909V996.611Z" fill="#E0E0E0"/>
<path d="M218.708 830.04L257.228 861.748L352.978 702.063L313.825 669.107L218.708 830.04Z" fill="#303B3C"/>
<path d="M31.612 1165.56L60.134 1185.7C63.4643 1188.03 67.1895 1189.63 71.0939 1190.39C74.9983 1191.16 79.0042 1191.08 82.8795 1190.15C86.7549 1189.23 90.4227 1187.49 93.6705 1185.02C96.9182 1182.56 99.6814 1179.42 101.8 1175.79L296.818 845.627C301.198 838.331 302.746 829.463 301.128 820.942C299.509 812.421 294.854 804.932 288.17 800.095L259.732 779.957C256.395 777.622 252.663 776.026 248.753 775.261C244.842 774.495 240.83 774.576 236.948 775.497C233.066 776.418 229.391 778.162 226.136 780.628C222.881 783.094 220.11 786.233 217.982 789.864L22.9641 1120.03C18.5844 1127.32 17.0363 1136.19 18.6547 1144.71C20.2731 1153.23 24.9279 1160.72 31.612 1165.56Z" fill="#D1D3D4"/>
<path d="M72.0489 1190.88C65.4423 1190.85 58.9815 1188.77 53.4314 1184.89L24.9002 1164.76C21.0551 1162.09 17.7372 1158.62 15.1384 1154.55C12.5396 1150.49 10.7112 1145.91 9.75912 1141.07C8.80699 1136.24 8.74995 1131.25 9.59122 1126.39C10.4325 1121.53 12.1554 1116.9 14.6605 1112.77L209.679 782.606C214.626 774.27 222.428 768.397 231.374 766.275C240.319 764.153 249.677 765.956 257.395 771.288L285.834 791.427C289.679 794.096 292.997 797.564 295.595 801.629C298.194 805.694 300.022 810.276 300.975 815.11C301.927 819.944 301.984 824.934 301.143 829.792C300.301 834.65 298.578 839.279 296.073 843.413L101.055 1173.58C97.9443 1178.85 93.6589 1183.2 88.5912 1186.23C83.5236 1189.25 77.8357 1190.85 72.0489 1190.88ZM29.6011 1156.93L58.123 1177.07C60.978 1179.07 64.1707 1180.43 67.5163 1181.08C70.8619 1181.74 74.2941 1181.67 77.6141 1180.87C80.9341 1180.08 84.0761 1178.59 86.8582 1176.47C89.6403 1174.36 92.0072 1171.67 93.8221 1168.56L288.84 838.398C290.733 835.294 292.037 831.814 292.675 828.16C293.313 824.506 293.273 820.751 292.558 817.114C291.842 813.477 290.466 810.03 288.507 806.973C286.549 803.917 284.049 801.312 281.151 799.311L252.62 779.173C249.791 777.172 246.621 775.803 243.296 775.144C239.972 774.485 236.559 774.551 233.258 775.336C229.917 776.127 226.753 777.625 223.949 779.743C221.146 781.862 218.757 784.56 216.921 787.681L22.0051 1117.84C20.1083 1120.94 18.7996 1124.42 18.1551 1128.07C17.5106 1131.72 17.543 1135.47 18.2506 1139.11C18.9582 1142.75 20.3268 1146.19 22.2769 1149.25C24.227 1152.31 26.7198 1154.92 29.6104 1156.93H29.6011Z" fill="#303B3C"/>
<path d="M1114.51 657.517H1016.37C1015.66 657.52 1014.97 657.361 1014.33 657.052C1013.68 656.743 1013.11 656.291 1012.64 655.725C1012.13 655.168 1011.74 654.5 1011.49 653.765C1011.24 653.03 1011.14 652.246 1011.19 651.465C1014.5 596.755 1034.56 544.796 1068.21 503.793C1074.86 495.854 1081.96 488.366 1089.46 481.369C1127.51 444.896 1175.75 423.224 1226.49 419.797C1227.95 419.736 1229.36 420.301 1230.43 421.368C1230.93 421.885 1231.33 422.51 1231.6 423.204C1231.87 423.897 1232 424.644 1231.98 425.395V530.697C1231.97 532.068 1231.5 533.389 1230.67 534.418C1229.83 535.448 1228.68 536.118 1227.42 536.306C1200.09 539.88 1174.65 553.268 1155.18 574.329C1135.71 595.389 1123.33 622.904 1120.03 652.472C1119.97 653.193 1119.79 653.896 1119.48 654.539C1119.18 655.183 1118.76 655.755 1118.25 656.223C1117.74 656.69 1117.15 657.044 1116.51 657.265C1115.87 657.485 1115.2 657.567 1114.54 657.507L1114.51 657.517ZM1109.66 646.25C1113.17 621.635 1122.57 598.441 1136.92 578.968L1109.66 646.25Z" fill="#E0E0E0"/>
<path d="M1466.27 651.898C1463.04 598.177 1443.34 547.155 1410.29 506.904L1341.24 582.26C1356 602.354 1365.26 626.515 1367.98 652.008C1369.09 662.55 1369.09 673.194 1367.98 683.736C1364.58 714.608 1351.68 743.345 1331.36 765.329C1311.03 787.313 1284.47 801.267 1255.93 804.947C1251.04 805.531 1246.13 805.83 1241.21 805.843C1236.29 805.827 1231.38 805.528 1226.49 804.947C1197.87 801.275 1171.24 787.248 1150.91 765.143C1130.59 743.037 1117.77 714.151 1114.54 683.172H1016.37C1019.35 737.082 1038.86 788.377 1071.83 828.942C1078.24 836.936 1085.17 844.429 1092.56 851.365C1129.76 886.939 1176.84 908.121 1226.39 911.578H1255.83C1305.35 908.097 1352.39 886.916 1389.56 851.365C1396.95 844.429 1403.88 836.936 1410.29 828.942C1443.49 788.485 1463.2 737.163 1466.27 683.172V667.213C1466.27 661.876 1466.68 657.053 1466.27 651.898Z" fill="#1652F0"/>
<path d="M1320.45 565.334C1319.28 565.319 1318.15 564.887 1317.23 564.106C1299.35 548.663 1277.78 539.02 1255.03 536.295C1253.78 536.107 1252.63 535.437 1251.79 534.408C1250.95 533.378 1250.48 532.058 1250.47 530.687V424.277C1250.47 423.517 1250.62 422.766 1250.9 422.072C1251.19 421.377 1251.61 420.757 1252.13 420.25C1253.17 419.2 1254.54 418.635 1255.96 418.679C1306.73 422.087 1354.98 443.753 1393.05 480.231C1394.1 481.276 1394.73 482.72 1394.81 484.258C1394.82 485.028 1394.69 485.791 1394.43 486.504C1394.16 487.217 1393.76 487.864 1393.26 488.407L1323.7 563.643C1322.86 564.638 1321.69 565.243 1320.45 565.334Z" fill="#098551"/>
<path d="M333.01 207.682H849.05C851.413 207.598 853.711 208.531 855.439 210.277C857.166 212.023 858.183 214.439 858.266 216.996V263.575C858.266 525.974 647.888 738.682 388.304 738.682H333.01C330.647 738.767 328.349 737.833 326.622 736.087C324.894 734.341 323.877 731.925 323.795 729.369V216.996C323.877 214.439 324.894 212.023 326.622 210.277C328.349 208.531 330.647 207.598 333.01 207.682Z" fill="#F8F8F8"/>
<path d="M796.939 384.305H447.74C446.594 384.25 445.511 383.718 444.72 382.818C443.928 381.919 443.49 380.723 443.496 379.482C443.468 378.234 443.9 377.025 444.696 376.121C445.491 375.216 446.586 374.691 447.74 374.659H796.939C798.122 374.659 799.256 375.167 800.092 376.072C800.929 376.976 801.398 378.203 801.398 379.482C801.398 380.761 800.929 381.988 800.092 382.892C799.256 383.797 798.122 384.305 796.939 384.305Z" fill="#D1D3D4" stroke="#D1D3D4" stroke-width="2"/>
<path d="M774.794 499.374H648.195C647.143 499.178 646.189 498.587 645.501 497.705C644.814 496.822 644.436 495.705 644.436 494.551C644.436 493.396 644.814 492.279 645.501 491.396C646.189 490.514 647.143 489.923 648.195 489.728H774.636C775.683 489.915 776.635 490.494 777.328 491.363C778.021 492.232 778.411 493.336 778.428 494.484C778.446 495.631 778.091 496.749 777.425 497.642C776.76 498.536 775.825 499.149 774.785 499.374H774.794Z" fill="#D1D3D4" stroke="#D1D3D4" stroke-width="2"/>
<path d="M578.165 499.374H447.275C446.186 499.269 445.178 498.704 444.471 497.801C443.763 496.898 443.413 495.731 443.496 494.551C443.435 493.376 443.793 492.221 444.496 491.323C445.199 490.426 446.194 489.855 447.275 489.728H578.165C579.247 489.855 580.242 490.426 580.945 491.323C581.648 492.221 582.006 493.376 581.945 494.551C582.028 495.731 581.677 496.898 580.97 497.801C580.263 498.704 579.255 499.269 578.165 499.374Z" fill="#D1D3D4" stroke="#D1D3D4" stroke-width="2"/>
<path d="M757.545 614.654H447.806C446.623 614.654 445.489 614.146 444.653 613.241C443.817 612.337 443.347 611.11 443.347 609.831C443.347 608.552 443.817 607.325 444.653 606.42C445.489 605.516 446.623 605.008 447.806 605.008H757.536C758.718 605.008 759.853 605.516 760.689 606.42C761.525 607.325 761.995 608.552 761.995 609.831C761.995 611.11 761.525 612.337 760.689 613.241C759.853 614.146 758.718 614.654 757.536 614.654H757.545Z" fill="#D1D3D4" stroke="#D1D3D4" stroke-width="2"/>
<path d="M823.088 205.378H312.578" stroke="#303B3C"/>
<path d="M316.404 727.639V198.562V727.639Z" fill="#303B3C"/>
<path d="M316.404 727.639V198.562" stroke="#303B3C"/>
<path d="M716.112 253.9C716.377 319.767 703.213 384.887 677.558 444.624C651.903 504.36 614.388 557.244 567.684 599.51C407.285 746.336 356.012 666.026 356.012 666.026L477.705 777.792L641.363 757.503L727.506 672.853L857.977 206.878L641.363 66.8577" fill="white"/>
<path d="M476.16 809.368C424.894 809.406 374.699 793.488 331.568 763.514C186.063 661.132 161.376 418.931 276.581 223.602C339.945 116.377 434.895 41.141 537.161 17.1868C573.177 7.91313 610.542 6.50902 647.067 13.0568C683.592 19.6045 718.541 33.9723 749.865 55.3182C895.287 157.579 919.973 399.679 804.899 595.018C741.599 702.334 646.65 777.63 544.449 801.575C522.789 806.626 500.701 809.221 478.543 809.318L476.16 809.368ZM582.494 81.3769C529.959 82.315 478.666 98.8079 434.187 129.064C384.015 162.653 341.867 208.561 311.163 263.063C288.896 301.813 272.698 344.275 263.223 388.734C254.393 429.536 252.266 471.699 256.939 513.298C261.101 551.846 272.563 589.053 290.609 622.598C308.233 655.203 332.97 682.645 362.659 702.526C379.904 714.021 398.589 722.774 418.139 728.514C437.562 734.184 457.597 737.028 477.715 736.972C530.253 736.041 581.55 719.551 626.031 689.295C676.147 655.682 718.241 609.777 748.907 555.296C771.174 516.546 787.372 474.084 796.847 429.624C805.676 388.826 807.803 346.666 803.13 305.071C798.956 266.515 787.478 229.304 769.414 195.761C751.8 163.16 727.077 135.719 697.401 115.833C680.182 104.345 661.526 95.5928 642.005 89.8449C622.603 84.1796 602.59 81.3353 582.494 81.3869V81.3769Z" fill="#303B3C"/>
<path d="M293.616 252.992C386.052 90.9817 558.981 25.1101 679.855 105.763C800.729 186.416 823.814 383.215 731.388 545.226C638.961 707.237 466.089 773.159 345.149 692.455C224.21 611.752 201.19 415.003 293.616 252.992Z" stroke="#303B3C"/>
<path d="M604.348 624.385C605.303 625.715 606.695 626.596 608.235 626.844C609.774 627.093 611.343 626.689 612.615 625.718C613.8 624.918 734.95 536.318 741.336 369.09C741.461 367.434 740.998 365.789 740.043 364.488C739.087 363.187 737.71 362.327 736.19 362.084C733.126 361.342 733.179 365.783 732.446 369.092C716.962 542.233 606.223 614.01 605.094 614.904C604.417 615.427 603.854 616.102 603.442 616.883C603.03 617.664 602.78 618.533 602.709 619.429C602.638 620.325 602.748 621.227 603.031 622.072C603.313 622.918 603.762 623.687 604.347 624.326L604.348 624.385Z" fill="#303B3C"/>
<path d="M593.569 633.304C593.174 632.576 592.646 631.942 592.017 631.442C591.388 630.942 590.672 630.586 589.911 630.396C589.151 630.205 588.363 630.184 587.595 630.334C586.827 630.484 586.095 630.802 585.444 631.268C575.669 637.547 565.043 642.127 553.954 644.839C553.214 645.033 552.516 645.385 551.903 645.873C551.289 646.361 550.772 646.977 550.38 647.683C549.989 648.39 549.731 649.174 549.622 649.99C549.513 650.805 549.556 651.636 549.746 652.433L550.733 654.141C551.369 655.269 552.328 656.14 553.465 656.622C554.602 657.103 555.853 657.169 557.028 656.808C569.37 654.124 581.233 649.312 592.163 642.554C592.871 642.087 593.477 641.459 593.939 640.714C594.401 639.969 594.709 639.125 594.84 638.239C594.972 637.354 594.925 636.447 594.703 635.583C594.48 634.719 594.087 633.917 593.55 633.233L593.569 633.304Z" fill="#303B3C"/>
<path d="M196.321 1217.96C233.146 1198.62 275.484 1195.55 314.365 1209.4C333.131 1216.07 350.533 1226.59 365.619 1240.38C388.794 1261.57 405.451 1289.89 413.37 1321.57C421.29 1353.25 420.096 1386.79 409.947 1417.72C403.341 1438.02 393.166 1456.74 379.982 1472.86C359.44 1497.92 332.54 1515.89 302.628 1524.55C272.716 1533.21 241.112 1532.16 211.745 1521.54C192.889 1514.73 175.432 1504.03 160.343 1490.04C137.329 1468.67 120.879 1440.22 113.183 1408.49C105.487 1376.75 106.909 1343.24 117.262 1312.4C123.95 1292.28 134.152 1273.74 147.31 1257.78C161.068 1241.15 177.723 1227.62 196.321 1217.96Z" fill="#1652F0"/>
<path d="M234.077 1433.64C234.588 1434.75 234.903 1435.96 235.008 1437.19C235.103 1438.36 234.996 1439.53 234.692 1440.66C234.401 1441.76 233.907 1442.79 233.24 1443.68C232.567 1444.57 231.722 1445.29 230.763 1445.79L220.068 1451.39C219.109 1451.89 218.061 1452.16 216.996 1452.19C215.941 1452.2 214.894 1451.99 213.915 1451.57C212.903 1451.14 211.975 1450.5 211.178 1449.7C210.33 1448.84 209.638 1447.81 209.139 1446.68L193.966 1413.16C193.454 1412.05 193.138 1410.84 193.035 1409.6C192.943 1408.44 193.053 1407.26 193.361 1406.14C193.652 1405.04 194.146 1404.01 194.813 1403.12C195.487 1402.23 196.332 1401.51 197.289 1401.01L207.976 1395.51C208.931 1395.01 209.976 1394.73 211.038 1394.71C212.09 1394.7 213.134 1394.9 214.11 1395.33C215.118 1395.76 216.043 1396.39 216.838 1397.19C217.68 1398.03 218.371 1399.03 218.876 1400.15L234.077 1433.64ZM274.105 1412.67C274.616 1413.79 274.932 1414.99 275.036 1416.23C275.131 1417.39 275.024 1418.57 274.719 1419.69C274.431 1420.79 273.94 1421.82 273.277 1422.71C272.604 1423.61 271.759 1424.33 270.8 1424.83L260.114 1430.42C259.155 1430.92 258.107 1431.19 257.042 1431.21C255.988 1431.23 254.941 1431.02 253.961 1430.6C252.95 1430.16 252.022 1429.53 251.224 1428.73C250.376 1427.87 249.685 1426.85 249.185 1425.71L218.802 1358.79C218.29 1357.69 217.974 1356.48 217.871 1355.25C217.776 1354.09 217.883 1352.92 218.187 1351.8C218.478 1350.69 218.972 1349.67 219.64 1348.78C220.305 1347.89 221.14 1347.17 222.088 1346.67L232.783 1341.13C233.739 1340.63 234.784 1340.36 235.846 1340.34C236.897 1340.32 237.941 1340.52 238.918 1340.94C239.925 1341.37 240.85 1342 241.645 1342.8C242.488 1343.63 243.179 1344.63 243.684 1345.75L274.105 1412.67ZM314.133 1391.73C314.644 1392.84 314.96 1394.05 315.063 1395.29C315.162 1396.45 315.058 1397.63 314.756 1398.75C314.469 1399.85 313.978 1400.88 313.313 1401.77C312.644 1402.66 311.802 1403.38 310.847 1403.88L300.169 1409.47C299.211 1409.98 298.163 1410.25 297.098 1410.27C296.043 1410.28 294.996 1410.08 294.016 1409.65C293.006 1409.22 292.078 1408.59 291.28 1407.79C290.428 1406.93 289.734 1405.91 289.232 1404.77L234.943 1285.6C234.432 1284.5 234.116 1283.3 234.012 1282.07C233.917 1280.91 234.025 1279.74 234.329 1278.63C234.628 1277.55 235.121 1276.55 235.781 1275.69C236.453 1274.8 237.295 1274.09 238.248 1273.59L248.888 1268.03C249.844 1267.53 250.889 1267.27 251.95 1267.25C253.001 1267.23 254.045 1267.43 255.022 1267.85C256.029 1268.28 256.953 1268.9 257.75 1269.69C258.591 1270.53 259.283 1271.53 259.788 1272.63L314.133 1391.73ZM354.16 1370.79C354.672 1371.9 354.988 1373.1 355.091 1374.34C355.19 1375.51 355.086 1376.68 354.784 1377.81C354.497 1378.91 354.006 1379.93 353.341 1380.83C352.67 1381.71 351.828 1382.43 350.874 1382.93L340.197 1388.52C339.239 1389.02 338.19 1389.29 337.125 1389.31C336.071 1389.33 335.024 1389.12 334.044 1388.7C333.014 1388.27 332.067 1387.64 331.251 1386.84C330.405 1385.99 329.71 1384.99 329.203 1383.87L313.965 1350.39C313.454 1349.28 313.138 1348.08 313.034 1346.84C312.936 1345.68 313.04 1344.51 313.341 1343.39C313.628 1342.29 314.119 1341.26 314.784 1340.37C315.455 1339.48 316.297 1338.76 317.251 1338.26L327.919 1332.69C328.875 1332.18 329.919 1331.91 330.981 1331.89C332.035 1331.87 333.082 1332.08 334.063 1332.49C335.073 1332.92 336 1333.55 336.799 1334.35C337.645 1335.19 338.339 1336.19 338.847 1337.31L354.16 1370.79Z" fill="white"/>
<path d="M323.125 1495.97C331.933 1491.36 340.309 1485.84 348.137 1479.49C355.828 1473.25 362.937 1466.2 369.361 1458.46C388.748 1435.07 401.288 1405.99 405.395 1374.89C408.05 1354.63 406.895 1334 401.998 1314.23C397.082 1294.31 388.532 1275.66 376.853 1259.37C365.173 1243.08 350.599 1229.48 333.988 1219.37C325.585 1214.24 316.741 1210.01 307.579 1206.73C298.393 1203.45 288.934 1201.13 279.336 1199.82C260.309 1197.21 240.996 1198.61 222.46 1203.93C203.645 1209.33 185.953 1218.56 170.331 1231.12C162.683 1237.29 155.606 1244.25 149.2 1251.9C129.82 1275.09 117.192 1303.94 112.896 1334.85C110.104 1355.05 111.105 1375.65 115.837 1395.42C120.608 1415.44 129.044 1434.22 140.646 1450.65C152.248 1467.08 166.78 1480.83 183.382 1491.07C191.807 1496.28 200.683 1500.57 209.884 1503.9C219.123 1507.24 228.641 1509.6 238.303 1510.95C257.475 1513.65 276.948 1512.28 295.636 1506.92C305.109 1504.19 314.318 1500.48 323.134 1495.85L323.125 1495.97ZM326.383 1502.99C289.273 1522.54 246.55 1525.55 207.408 1511.37C188.559 1504.6 171.102 1493.94 156.005 1479.98C132.991 1458.61 116.541 1430.16 108.845 1398.43C101.149 1366.69 102.571 1333.18 112.924 1302.34C119.612 1282.22 129.814 1263.68 142.972 1247.72C163.455 1222.98 190.164 1205.23 219.829 1196.64C249.494 1188.06 280.829 1189.01 309.999 1199.39C328.765 1206.06 346.167 1216.58 361.253 1230.38C384.428 1251.56 401.085 1279.88 409.005 1311.56C416.924 1343.24 415.73 1376.78 405.581 1407.71C398.975 1428.01 388.8 1446.73 375.617 1462.85C361.822 1479.66 345.077 1493.34 326.355 1503.1L326.383 1502.99Z" fill="#303B3C"/>
<path d="M1936.36 964.46C1955.24 973.674 1972.31 986.741 1986.63 1002.94C2000.34 1018.5 2011.23 1036.7 2018.75 1056.59C2026.22 1076.26 2030.12 1097.3 2030.24 1118.56C2030.34 1140.36 2026.28 1161.96 2018.32 1181.99C2010.42 1201.98 1998.75 1219.97 1984.05 1234.79C1969.73 1249.18 1952.91 1260.35 1934.57 1267.66C1915.96 1275.08 1896.2 1278.54 1876.38 1277.84C1855.55 1277.09 1835.06 1271.91 1816.08 1262.59C1796.98 1253.3 1779.73 1240.07 1765.31 1223.64C1751.48 1207.88 1740.53 1189.43 1733.05 1169.26C1725.64 1149.39 1721.87 1128.16 1721.95 1106.74C1722.05 1084.86 1726.35 1063.24 1734.55 1043.24C1742.67 1023.35 1754.53 1005.52 1769.39 990.881C1783.79 976.737 1800.63 965.808 1818.95 958.721C1837.46 951.545 1857.08 948.281 1876.74 949.105C1897.34 949.989 1917.59 955.204 1936.36 964.46Z" fill="#801822"/>
<path d="M1819 1235.85C1827.95 1240.22 1837.26 1243.66 1846.81 1246.12C1856.17 1248.53 1865.72 1249.95 1875.33 1250.37C1894.53 1251.21 1913.7 1247.93 1931.72 1240.73C1940.68 1237.16 1949.28 1232.63 1957.4 1227.21C1973.3 1216.6 1987.03 1202.57 1997.73 1185.99C2013.98 1160.78 2022.75 1130.82 2022.86 1100.09C2022.89 1089.93 2021.99 1079.79 2020.17 1069.81C2018.31 1059.63 2015.54 1049.66 2011.9 1040.05C2000.93 1011.02 1982.48 986.015 1958.75 968.006C1942.8 955.888 1924.89 947.11 1905.96 942.128C1896.69 939.706 1887.24 938.249 1877.72 937.778C1858.68 936.834 1839.64 939.937 1821.7 946.911C1812.76 950.372 1804.17 954.787 1796.04 960.091C1788.07 965.303 1780.61 971.375 1773.77 978.216C1766.95 985.037 1760.79 992.595 1755.4 1000.77C1738.85 1025.84 1729.78 1055.79 1729.41 1086.59C1729.29 1096.82 1730.11 1107.04 1731.87 1117.09C1733.67 1127.37 1736.4 1137.44 1740.01 1147.15C1750.9 1176.53 1769.44 1201.86 1793.38 1220.07C1801.42 1226.2 1809.99 1231.48 1818.96 1235.85H1819ZM1816.05 1243.06C1796.96 1233.77 1779.72 1220.55 1765.3 1204.13C1751.48 1188.4 1740.54 1169.97 1733.05 1149.83C1725.66 1129.99 1721.9 1108.79 1721.97 1087.4C1722.07 1065.55 1726.35 1043.95 1734.55 1023.97C1742.67 1004.12 1754.53 986.318 1769.37 971.711C1783.78 957.583 1800.63 946.674 1818.95 939.611C1837.44 932.459 1857.03 929.208 1876.66 930.035C1897.25 930.92 1917.48 936.129 1936.24 945.37C1955.1 954.586 1972.14 967.646 1986.44 983.834C2000.17 999.352 2011.09 1017.51 2018.65 1037.38C2026.11 1057.03 2030.01 1078.04 2030.13 1099.29C2030.24 1121.06 2026.18 1142.63 2018.23 1162.64C2010.33 1182.6 1998.66 1200.56 1983.97 1215.36C1969.66 1229.73 1952.85 1240.89 1934.52 1248.18C1915.93 1255.58 1896.18 1259.03 1876.37 1258.32C1855.55 1257.56 1835.07 1252.37 1816.1 1243.06H1816.05Z" fill="#303B3C"/>
<path d="M1938.69 1082.78C1941.56 1065.17 1926.94 1055.7 1906.95 1049.39L1913.44 1025.53L1897.6 1021.91L1891.29 1045.14C1887.13 1044.19 1882.85 1043.29 1878.61 1042.4L1884.97 1019.02L1869.14 1015.4L1862.65 1039.25C1859.21 1038.53 1855.83 1037.82 1852.54 1037.07L1852.56 1037L1830.73 1032L1826.51 1047.5C1826.51 1047.5 1838.26 1049.97 1838.01 1050.13C1840.2 1050.37 1842.2 1051.39 1843.58 1052.97C1844.96 1054.55 1845.61 1056.56 1845.39 1058.57L1838 1085.75C1838.56 1085.87 1839.11 1086.04 1839.65 1086.23L1837.98 1085.85L1827.62 1123.92C1827.4 1124.58 1827.03 1125.2 1826.54 1125.73C1826.05 1126.27 1825.45 1126.71 1824.78 1127.03C1824.1 1127.35 1823.37 1127.54 1822.61 1127.6C1821.85 1127.66 1821.09 1127.58 1820.37 1127.37C1820.53 1127.58 1808.86 1124.73 1808.86 1124.73L1801 1141.36L1821.61 1146.07C1825.44 1146.95 1829.2 1147.87 1832.89 1148.74L1826.34 1172.87L1842.15 1176.49L1848.65 1152.62C1852.96 1153.7 1857.16 1154.69 1861.26 1155.62L1854.79 1179.38L1870.63 1183L1877.18 1158.92C1904.18 1163.6 1924.48 1161.71 1933.02 1139.32C1939.9 1121.29 1932.68 1110.89 1918.47 1104.1C1928.82 1101.91 1936.62 1095.67 1938.69 1082.78ZM1902.52 1129.3C1897.62 1147.33 1864.52 1137.59 1853.78 1135.14L1862.48 1103.17C1873.21 1105.63 1907.62 1110.49 1902.52 1129.3ZM1907.41 1082.52C1902.94 1098.92 1875.39 1090.59 1866.45 1088.54L1874.33 1059.55C1883.27 1061.59 1912.06 1065.41 1907.41 1082.52Z" fill="white"/>
<path d="M1609.91 125.519C1623.69 129.854 1636.46 137.328 1647.36 147.44C1657.99 157.352 1666.68 169.473 1672.9 183.084C1679.28 197.014 1683.12 212.14 1684.22 227.639C1685.38 244.04 1683.6 260.527 1679 276.202C1674.42 291.982 1667.1 306.675 1657.45 319.499C1648.25 331.736 1637.02 342.007 1624.34 349.787C1611.93 357.406 1598.27 362.334 1584.12 364.296C1569.75 366.274 1555.15 364.939 1541.29 360.38C1527.55 355.885 1514.86 348.264 1504.06 338.026C1493.56 328.03 1485.02 315.867 1478.93 302.251C1472.71 288.369 1468.99 273.333 1467.98 257.947C1466.91 241.697 1468.72 225.376 1473.3 209.858C1477.86 194.239 1485.09 179.688 1494.62 166.963C1503.72 154.798 1514.81 144.556 1527.35 136.756C1539.63 129.11 1553.16 124.104 1567.2 122.015C1581.5 119.926 1596.05 121.12 1609.9 125.519H1609.91Z" fill="#098551"/>
<path d="M1575.98 215.758L1585.54 183.064L1549.7 171.585C1549.37 171.48 1549.02 171.412 1548.68 171.384C1548.33 171.346 1547.99 171.346 1547.64 171.384C1547.3 171.431 1546.95 171.515 1546.62 171.636C1546.28 171.759 1545.95 171.917 1545.64 172.109C1545.31 172.3 1545 172.526 1544.71 172.784C1544.44 173.04 1544.18 173.323 1543.96 173.629C1543.5 174.25 1543.15 174.957 1542.93 175.714L1516.35 267.463C1516.13 268.285 1516.17 269.159 1516.44 269.96C1516.73 270.815 1517.13 271.621 1517.63 272.356C1518.05 272.986 1518.51 273.585 1519 274.149C1519.39 274.592 1519.65 274.854 1519.65 274.854L1584.16 295.837C1584.5 295.946 1584.84 296.017 1585.19 296.049C1585.53 296.087 1585.88 296.087 1586.23 296.049C1586.58 296.002 1586.92 295.918 1587.25 295.797C1587.59 295.675 1587.93 295.516 1588.24 295.324C1588.57 295.133 1588.88 294.907 1589.17 294.649C1589.43 294.398 1589.67 294.122 1589.89 293.824C1590.35 293.201 1590.7 292.491 1590.92 291.729L1608.06 232.503L1579.27 223.209C1578.59 222.996 1577.95 222.625 1577.41 222.122C1576.9 221.615 1576.49 221.002 1576.2 220.32C1575.89 219.636 1575.71 218.894 1575.65 218.135C1575.61 217.348 1575.7 216.559 1575.92 215.809L1575.98 215.758ZM1610.76 223.199L1610.33 224.669L1583.37 215.99L1592.37 185.179L1593.66 185.591C1594.32 185.788 1594.94 186.13 1595.47 186.598C1595.74 186.84 1595.98 187.11 1596.19 187.404C1596.41 187.717 1596.6 188.055 1596.76 188.411L1610.55 218.688C1610.7 219.034 1610.82 219.395 1610.91 219.766C1610.99 220.135 1611.04 220.513 1611.06 220.894C1611.1 221.279 1611.1 221.666 1611.06 222.051C1611 222.447 1610.89 222.835 1610.76 223.209V223.199Z" fill="white"/>
<path d="M1532.54 342.689C1545.25 346.864 1558.61 348.143 1571.8 346.444C1578.44 345.592 1584.99 344.017 1591.35 341.742C1597.86 339.391 1604.15 336.356 1610.12 332.68C1622.21 325.287 1632.89 315.469 1641.59 303.752C1645.94 297.888 1649.77 291.598 1653.05 284.963C1659.7 271.464 1663.99 256.751 1665.7 241.565C1666.52 234.165 1666.69 226.697 1666.21 219.262C1665.73 211.908 1664.6 204.621 1662.82 197.503C1661.04 190.371 1658.61 183.447 1655.57 176.831C1652.56 170.311 1648.96 164.134 1644.81 158.395C1640.77 152.785 1636.2 147.643 1631.18 143.05C1626.19 138.491 1620.78 134.508 1615.03 131.168C1609.2 127.803 1603.06 125.103 1596.72 123.113C1584.01 119.091 1570.68 117.953 1557.55 119.77C1550.96 120.682 1544.47 122.305 1538.18 124.613C1531.72 126.976 1525.49 130.011 1519.57 133.675C1507.62 141.079 1497.07 150.856 1488.48 162.493C1484.18 168.311 1480.38 174.547 1477.15 181.121C1470.57 194.477 1466.31 209.021 1464.57 224.035C1463.73 231.382 1463.53 238.799 1463.98 246.187C1464.41 253.481 1465.49 260.714 1467.2 267.785C1468.92 274.888 1471.29 281.792 1474.26 288.396C1477.2 294.932 1480.74 301.132 1484.83 306.903C1488.81 312.538 1493.32 317.714 1498.29 322.349C1503.22 326.97 1508.59 331.019 1514.31 334.432C1520.1 337.876 1526.22 340.656 1532.54 342.729V342.689ZM1530.29 350.432C1516.55 345.943 1503.85 338.325 1493.06 328.088C1482.56 318.094 1474.01 305.93 1467.92 292.313C1461.71 278.43 1458 263.395 1456.98 248.009C1455.93 231.739 1457.76 215.4 1462.37 199.869C1466.92 184.234 1474.15 169.665 1483.69 156.925C1492.79 144.759 1503.89 134.518 1516.43 126.718C1528.71 119.064 1542.25 114.052 1556.29 111.957C1570.58 109.846 1585.11 111.012 1598.95 115.38C1612.74 119.709 1625.5 127.18 1636.39 137.29C1647.02 147.202 1655.71 159.323 1661.93 172.935C1668.3 186.869 1672.13 201.999 1673.23 217.5C1674.38 233.908 1672.6 250.402 1668 266.083C1663.41 281.88 1656.1 296.59 1646.44 309.43C1637.22 321.677 1625.98 331.955 1613.28 339.738C1600.87 347.363 1587.21 352.298 1573.06 354.268C1558.71 356.252 1544.13 354.931 1530.29 350.391V350.432Z" fill="#303B3C"/>
<defs>
<filter id="filter0_d" x="0.464722" y="0" width="2050.54" height="1556" filterUnits="userSpaceOnUse" color-interpolation-filters="sRGB">
<feFlood flood-opacity="0" result="BackgroundImageFix"/>
<feColorMatrix in="SourceAlpha" type="matrix" values="0 0 0 0 0 0 0 0 0 0 0 0 0 0 0 0 0 0 127 0" result="hardAlpha"/>
<feOffset dy="1"/>
<feGaussianBlur stdDeviation="5"/>
<feColorMatrix type="matrix" values="0 0 0 0 0 0 0 0 0 0 0 0 0 0 0 0 0 0 0.039 0"/>
<feBlend mode="normal" in2="BackgroundImageFix" result="effect1_dropShadow"/>
<feBlend mode="normal" in="SourceGraphic" in2="effect1_dropShadow" result="shape"/>
</filter>
</defs>
</svg>
