<?xml version="1.0" ?><svg height="32" viewBox="0 0 32 32" width="32" xmlns="http://www.w3.org/2000/svg"><title/><g data-name="2" id="_2"><path d="M27.38,20.8A3,3,0,0,0,28,19a3,3,0,0,0-2-2.82V14H24v2H23V14H21v2H19v2h1v8H19v2h2v2h2V28h1v2h2V27.86a4,4,0,0,0,1.38-7.06ZM25,18a1,1,0,0,1,0,2H22V18Zm0,8H22V22h3a2,2,0,0,1,0,4ZM4,12h7a1,1,0,0,0,1-1V4a1,1,0,0,0-1-1H4A1,1,0,0,0,3,4v7A1,1,0,0,0,4,12ZM5,5h5v5H5ZM9,7V8A1,1,0,0,1,8,9H7A1,1,0,0,1,6,8V7A1,1,0,0,1,7,6H8A1,1,0,0,1,9,7ZM3,16V15a1,1,0,0,1,1-1H5a1,1,0,0,1,1,1v1H7a1,1,0,0,1,1,1v1a1,1,0,0,1-1,1H6a1,1,0,0,1-1-1V17H4A1,1,0,0,1,3,16ZM14,5V4a1,1,0,0,1,1-1h1a1,1,0,0,1,1,1V5a1,1,0,0,1-1,1H15A1,1,0,0,1,14,5Zm0,6V10a1,1,0,0,1,1-1h1a1,1,0,0,1,1,1v1h1a1,1,0,0,1,1,1v1a1,1,0,0,1-1,1H17a1,1,0,0,1-1-1V12H15A1,1,0,0,1,14,11Zm5,9a1,1,0,0,1-1,1H17v1a1,1,0,0,1-1,1H15a1,1,0,0,1-1-1V21a1,1,0,0,1,1-1h1V19a1,1,0,0,1,1-1h1a1,1,0,0,1,1,1Zm-5-3a1,1,0,0,1-1,1H10a1,1,0,0,1-1-1V14a1,1,0,0,1,1-1h1a1,1,0,0,1,1,1v1h1a1,1,0,0,1,1,1Zm0-1V15a1,1,0,0,1,1-1h1a1,1,0,0,1,1,1v1a1,1,0,0,1-1,1H15A1,1,0,0,1,14,16Zm3,11v1a1,1,0,0,1-1,1H15a1,1,0,0,1-1-1V27a1,1,0,0,1,1-1h1A1,1,0,0,1,17,27Zm-6-7H4a1,1,0,0,0-1,1v7a1,1,0,0,0,1,1h7a1,1,0,0,0,1-1V21A1,1,0,0,0,11,20Zm-1,7H5V22h5ZM6,25V24a1,1,0,0,1,1-1H8a1,1,0,0,1,1,1v1a1,1,0,0,1-1,1H7A1,1,0,0,1,6,25ZM28,3H21a1,1,0,0,0-1,1v7a1,1,0,0,0,1,1h7a1,1,0,0,0,1-1V4A1,1,0,0,0,28,3Zm-1,7H22V5h5ZM23,8V7a1,1,0,0,1,1-1h1a1,1,0,0,1,1,1V8a1,1,0,0,1-1,1H24A1,1,0,0,1,23,8Z" data-name="bitcoin address qr code" id="bitcoin_address_qr_code"/></g></svg>