<svg width="500" height="501" viewBox="0 0 500 501" fill="none" xmlns="http://www.w3.org/2000/svg">
<g clip-path="url(#clip0)">
<path d="M250.002 500.004C111.935 500.004 0 388.074 0 249.998C0 111.931 111.935 0 250.002 0C388.069 0 500 111.931 500 249.998C500 388.074 388.069 500.004 250.002 500.004Z" fill="#59616A"/>
<path d="M358.634 276.716V372.681C358.634 376.228 355.762 379.1 352.22 379.1H185.348C181.81 379.1 178.929 376.228 178.929 372.681V276.716C178.929 273.16 181.809 270.288 185.348 270.288H352.219C355.762 270.288 358.634 273.16 358.634 276.716Z" fill="#5FD4AF"/>
<path d="M345.804 283.134H191.767V366.27H345.804V283.134Z" fill="white"/>
<path d="M196.973 351.176C196.542 350.8 196.238 350.27 196.238 349.706V299.681C196.238 299.126 196.494 298.587 196.913 298.22C197.345 297.844 197.913 297.698 198.469 297.767C198.905 297.819 199.23 297.878 199.563 297.878C203.806 297.878 207.246 294.442 207.246 290.203C207.246 290.152 207.191 289.724 207.191 289.682C207.153 289.152 207.34 288.622 207.703 288.22C208.075 287.827 208.588 287.596 209.13 287.596H328.441C328.984 287.596 329.497 287.827 329.86 288.22C330.231 288.622 330.415 289.152 330.381 289.682C330.381 289.724 330.347 290.041 330.334 290.084C330.317 294.443 333.766 297.879 338.009 297.879C338.342 297.879 338.663 297.819 338.987 297.777C339.543 297.709 340.175 297.862 340.598 298.23C341.029 298.598 341.324 299.128 341.324 299.683V349.708C341.324 350.272 341.076 350.81 340.649 351.178C340.226 351.546 339.657 351.717 339.102 351.631C338.662 351.563 338.341 351.512 338.008 351.512C333.765 351.512 330.316 354.956 330.316 359.195C330.324 359.23 330.38 359.665 330.38 359.708C330.414 360.247 330.23 360.785 329.859 361.178C329.496 361.571 328.983 361.793 328.44 361.793H209.13C208.587 361.793 208.074 361.571 207.703 361.178C207.34 360.785 207.152 360.246 207.191 359.708C207.191 359.666 207.225 359.358 207.229 359.315C207.246 354.956 203.806 351.512 199.563 351.512C199.23 351.512 198.905 351.563 198.576 351.614C198.015 351.689 197.391 351.535 196.973 351.176Z" fill="#5FD4AF"/>
<path d="M302.544 324.698C302.544 331.074 307.736 336.271 314.108 336.271C320.497 336.271 325.68 331.074 325.68 324.698C325.68 318.314 320.496 313.134 314.108 313.134C307.736 313.134 302.544 318.314 302.544 324.698Z" fill="white"/>
<path d="M240.972 324.698C240.972 340.074 253.425 352.51 268.788 352.51C284.151 352.51 296.6 340.074 296.6 324.698C296.6 309.339 284.151 296.887 268.788 296.887C253.425 296.887 240.972 309.339 240.972 324.698Z" fill="white"/>
<path d="M211.887 324.698C211.887 331.074 217.075 336.271 223.455 336.271C229.836 336.271 235.028 331.074 235.028 324.698C235.028 318.314 229.836 313.134 223.455 313.134C217.075 313.134 211.887 318.314 211.887 324.698Z" fill="white"/>
<path d="M267.365 335.057C263.946 335.057 260.848 333.946 258.643 332.732L257.066 338.894C259.062 339.996 262.48 340.988 265.997 341.142V346.151H271.198V340.732C277.245 339.732 280.51 335.741 280.51 331.065C280.51 326.279 278.04 323.39 271.775 321.176C267.271 319.552 265.425 318.399 265.425 316.706C265.425 315.236 266.523 313.715 269.942 313.715C273.724 313.715 276.19 314.928 277.519 315.552L279.087 309.612C277.245 308.774 274.882 307.988 271.416 307.885V303.253H266.262V308.245C260.642 309.296 257.386 312.92 257.386 317.595C257.386 322.706 261.219 325.338 266.843 327.219C270.783 328.535 272.467 329.792 272.467 331.8C272.467 333.843 270.416 335.057 267.365 335.057Z" fill="#5FD4AF"/>
<path d="M317.433 127.341V223.306C317.433 226.844 314.561 229.725 311.019 229.725H144.149C140.611 229.725 137.73 226.845 137.73 223.306V127.341C137.73 123.785 140.61 120.914 144.149 120.914H311.019C314.561 120.914 317.433 123.785 317.433 127.341Z" fill="#FF9554"/>
<path d="M304.604 133.759H150.567V216.887H304.604V133.759Z" fill="white"/>
<path d="M155.772 201.802C155.34 201.426 155.037 200.896 155.037 200.332V150.307C155.037 149.751 155.293 149.213 155.712 148.845C156.143 148.469 156.712 148.323 157.263 148.392C157.703 148.443 158.028 148.503 158.361 148.503C162.605 148.503 166.045 145.067 166.045 140.828C166.045 140.776 165.985 140.349 165.985 140.306C165.951 139.768 166.139 139.246 166.502 138.844C166.87 138.451 167.382 138.22 167.929 138.22H287.24C287.783 138.22 288.296 138.451 288.659 138.844C289.031 139.246 289.215 139.767 289.181 140.306C289.181 140.349 289.147 140.665 289.134 140.708C289.117 145.067 292.566 148.503 296.809 148.503C297.142 148.503 297.463 148.443 297.788 148.4C298.343 148.332 298.972 148.486 299.399 148.853C299.831 149.221 300.126 149.751 300.126 150.306V200.331C300.126 200.895 299.878 201.434 299.451 201.801C299.028 202.168 298.459 202.339 297.904 202.254C297.464 202.185 297.143 202.134 296.81 202.134C292.567 202.134 289.118 205.578 289.118 209.818C289.127 209.852 289.182 210.288 289.182 210.331C289.216 210.869 289.032 211.408 288.66 211.801C288.297 212.194 287.784 212.416 287.241 212.416H167.93C167.383 212.416 166.87 212.194 166.503 211.801C166.14 211.408 165.952 210.869 165.986 210.331C165.986 210.288 166.025 209.98 166.029 209.938C166.046 205.579 162.606 202.135 158.362 202.135C158.029 202.135 157.704 202.186 157.375 202.238C156.811 202.314 156.187 202.161 155.772 201.802Z" fill="#FF9554"/>
<path d="M261.34 175.323C261.34 181.699 266.537 186.895 272.908 186.895C279.293 186.895 284.481 181.698 284.481 175.323C284.481 168.938 279.293 163.759 272.908 163.759C266.536 163.759 261.34 168.939 261.34 175.323Z" fill="white"/>
<path d="M199.768 175.323C199.768 190.699 212.225 203.134 227.588 203.134C242.951 203.134 255.4 190.698 255.4 175.323C255.4 159.964 242.951 147.511 227.588 147.511C212.224 147.512 199.768 159.964 199.768 175.323Z" fill="white"/>
<path d="M170.687 175.323C170.687 181.699 175.875 186.895 182.255 186.895C188.631 186.895 193.827 181.698 193.827 175.323C193.827 168.938 188.63 163.759 182.255 163.759C175.874 163.759 170.687 168.939 170.687 175.323Z" fill="white"/>
<path d="M238.477 174.819C241.447 172.956 242.844 169.811 242.041 166.776C241.024 162.973 236.985 160.511 231.503 160.34V155.836H227.9V160.332H223.259V155.836H219.575V160.332H213.951V164.144H217.442V187.075H213.951V190.879H219.575V195.374H223.259V190.879H227.9V195.374H231.502V190.879C235.07 190.879 237.985 190.11 240.152 188.631C242.032 187.332 243.224 185.554 243.588 183.494C244.245 179.836 242.1 176.203 238.477 174.819ZM225.1 164.144C225.515 164.144 225.908 164.144 226.271 164.144C226.604 164.144 226.925 164.144 227.224 164.144C229.207 164.144 230.361 164.195 231.587 164.512C234.69 165.29 235.536 167.572 235.326 169.281C234.98 171.999 232.467 173.23 230.283 173.23H225.1V164.144ZM232.758 186.511C231.818 186.759 230.668 186.887 229.361 186.887H225.1V176.896H229.211C231.395 176.896 233.232 177.383 234.536 178.315C235.66 179.11 236.369 180.238 236.531 181.477C236.822 183.793 235.275 185.87 232.758 186.511Z" fill="#FF9554"/>
<path d="M367.817 226.374C368.612 226.391 368.898 226.929 368.458 227.596L349.463 255.963C349.014 256.629 348.292 256.629 347.847 255.963L328.907 227.553C328.467 226.887 328.762 226.34 329.552 226.348L338.718 226.357C339.513 226.357 340.149 225.707 340.12 224.904C340.12 224.904 343.53 190.734 325.603 185.246C324.817 185.015 324.53 184.699 325.308 184.785C356.214 188.315 357.624 224.939 357.624 224.939C357.735 225.725 358.483 226.375 359.282 226.375H367.817V226.374Z" fill="white"/>
<path d="M132.178 273.972C131.383 273.964 131.097 273.425 131.537 272.767L150.532 244.392C150.981 243.734 151.703 243.734 152.147 244.392L171.087 272.802C171.527 273.469 171.232 274.016 170.442 274.007L161.276 273.998C160.481 273.998 159.844 274.656 159.874 275.451C159.874 275.451 156.464 309.622 174.391 315.109C175.177 315.34 175.464 315.665 174.686 315.571C143.78 312.041 142.37 275.417 142.37 275.417C142.259 274.631 141.511 273.981 140.711 273.981L132.178 273.972Z" fill="white"/>
</g>
<defs>
<clipPath id="clip0">
<rect width="500" height="500.004" fill="white"/>
</clipPath>
</defs>
</svg>
