<svg width="500" height="500" viewBox="0 0 500 500" fill="none" xmlns="http://www.w3.org/2000/svg">
<path d="M484.375 125C484.375 128.594 481.719 484.375 250 484.375C18.2813 484.375 15.625 128.594 15.625 125C15.625 118.75 19.375 113.125 25.1563 110.625L243.906 16.875C247.813 15.1562 252.188 15.1562 256.094 16.875L474.844 110.625C480.625 113.125 484.375 118.75 484.375 125Z" fill="#1652F0"/>
<path d="M219.5 214.625C219.5 194.862 232.717 179.75 250 179.75C267.283 179.75 280.5 194.862 280.5 214.625C280.5 234.388 267.283 249.5 250 249.5C232.717 249.5 219.5 234.388 219.5 214.625ZM250 272.75C203.233 272.75 189 311.112 189 311.112V330.875H311V311.112C311 311.112 296.767 272.75 250 272.75Z" fill="white"/>
<path d="M316.083 237.875C330.121 237.875 341.5 224.863 341.5 208.812C341.5 192.762 330.121 179.75 316.083 179.75C302.046 179.75 290.667 192.762 290.667 208.812C290.667 224.863 302.046 237.875 316.083 237.875Z" fill="white"/>
<path d="M316.083 261.125C303.883 261.125 294.733 264.613 287.616 270.425C311 283.212 320.15 305.3 320.15 307.625V308.787H361.833V293.675C361.833 292.512 350.65 261.125 316.083 261.125Z" fill="white"/>
<path d="M183.917 237.875C197.954 237.875 209.333 224.863 209.333 208.812C209.333 192.762 197.954 179.75 183.917 179.75C169.879 179.75 158.5 192.762 158.5 208.812C158.5 224.863 169.879 237.875 183.917 237.875Z" fill="white"/>
<path d="M183.917 261.125C196.117 261.125 205.267 264.613 212.383 270.425C189 283.212 179.85 305.3 179.85 307.625V308.787H138.167V293.675C138.167 292.512 149.35 261.125 183.917 261.125Z" fill="white"/>
</svg>
