<svg width="500" height="500" viewBox="0 0 500 500" fill="none" xmlns="http://www.w3.org/2000/svg">
<g clip-path="url(#clip0)">
<path d="M250 499.909C388.071 499.909 500 387.98 500 249.909C500 111.838 388.071 -0.0910645 250 -0.0910645C111.929 -0.0910645 0 111.838 0 249.909C0 387.98 111.929 499.909 250 499.909Z" fill="#E04F5F"/>
<path d="M395.455 313.554H104.545V395.372H395.455V313.554Z" fill="#4AC3AF"/>
<path d="M104.545 313.554L140.909 240.827H359.091L395.455 313.554H104.545Z" fill="#8CE3D4"/>
<path d="M127.273 304.463L154.545 249.918H345.454L372.727 304.463H127.273Z" fill="#0D9681"/>
<path d="M322.727 281.736C325.238 281.736 327.273 279.701 327.273 277.19C327.273 274.68 325.238 272.645 322.727 272.645C320.217 272.645 318.182 274.68 318.182 277.19C318.182 279.701 320.217 281.736 322.727 281.736Z" fill="#C2F8F0"/>
<path d="M177.273 281.736C179.783 281.736 181.818 279.701 181.818 277.19C181.818 274.68 179.783 272.645 177.273 272.645C174.762 272.645 172.727 274.68 172.727 277.19C172.727 279.701 174.762 281.736 177.273 281.736Z" fill="#C2F8F0"/>
<path d="M250 299.918C265.062 299.918 277.273 289.743 277.273 277.191C277.273 264.639 265.062 254.463 250 254.463C234.938 254.463 222.727 264.639 222.727 277.191C222.727 289.743 234.938 299.918 250 299.918Z" fill="#C2F8F0"/>
<path d="M249.818 261.368C251.054 261.368 252.036 262.186 252.036 263.218V263.713C254.341 263.995 256.386 264.568 258.223 265.422C259.032 265.813 259.759 266.491 259.759 267.559C259.759 268.909 258.482 269.941 256.859 269.941C256.345 269.941 255.836 269.836 255.368 269.618C254.173 269.086 252.982 268.659 251.827 268.409V273.818C258.309 275.277 261.082 277.482 261.082 281.468C261.082 285.45 257.414 288.013 252.036 288.513V290.4C252.036 291.432 251.054 292.25 249.818 292.25C248.582 292.25 247.6 291.432 247.6 290.4V288.477C244.568 288.159 241.714 287.268 239.195 285.986C238.3 285.522 237.745 284.813 237.745 283.85C237.745 282.463 239.027 281.432 240.691 281.432C241.245 281.432 241.841 281.609 242.354 281.895C244.145 282.854 245.854 283.532 247.814 283.886V278.227C241.673 276.841 238.641 274.882 238.641 270.65C238.641 266.736 242.223 264.104 247.6 263.641V263.213C247.604 262.186 248.582 261.368 249.818 261.368ZM247.818 272.895V268.091C245.773 268.341 244.877 269.195 244.877 270.332C244.873 271.436 245.468 272.186 247.818 272.895ZM251.827 279.122V284.068C253.832 283.818 254.854 283.036 254.854 281.754C254.854 280.582 254.127 279.8 251.827 279.122Z" fill="#17B198"/>
<path d="M395.455 322.645H104.545V331.736H395.455V322.645Z" fill="#C2F8F0"/>
<path d="M395.455 340.827H104.545V349.918H395.455V340.827Z" fill="#C2F8F0"/>
<path d="M395.455 359.009H104.545V368.1H395.455V359.009Z" fill="#C2F8F0"/>
<path d="M395.455 377.191H104.545V386.282H395.455V377.191Z" fill="#C2F8F0"/>
<path d="M104.545 322.645H202.395L211.486 313.554H104.545V322.645Z" fill="#8CE3D4"/>
<path d="M104.545 340.827H184.214L193.305 331.736H104.545V340.827Z" fill="#8CE3D4"/>
<path d="M104.545 386.281V395.372H129.668L138.759 386.281H104.545Z" fill="#8CE3D4"/>
<path d="M104.545 359.009H166.032L175.123 349.918H104.545V359.009Z" fill="#8CE3D4"/>
<path d="M104.545 377.191H147.85L156.941 368.1H104.545V377.191Z" fill="#8CE3D4"/>
<path d="M104.545 313.554H211.486L220.577 304.463H127.273L154.545 249.918H275.123L284.214 240.827H140.909L104.545 313.554Z" fill="#C2F8F0"/>
<path d="M222.727 277.191C222.727 264.641 234.936 254.463 250 254.463C256.05 254.463 261.618 256.123 266.141 258.9L275.123 249.918H154.545L127.273 304.463H220.577L231.323 293.718C226.041 289.573 222.727 283.709 222.727 277.191ZM177.273 281.736C174.764 281.736 172.727 279.7 172.727 277.191C172.727 274.682 174.764 272.645 177.273 272.645C179.782 272.645 181.818 274.682 181.818 277.191C181.818 279.7 179.782 281.736 177.273 281.736Z" fill="#17B198"/>
<path d="M177.273 281.736C179.783 281.736 181.818 279.701 181.818 277.19C181.818 274.68 179.783 272.645 177.273 272.645C174.762 272.645 172.727 274.68 172.727 277.19C172.727 279.701 174.762 281.736 177.273 281.736Z" fill="white"/>
<path d="M222.727 277.191C222.727 283.714 226.041 289.577 231.323 293.718L239.118 285.923C238.282 285.459 237.75 284.782 237.75 283.854C237.75 282.468 239.032 281.436 240.695 281.436C241.25 281.436 241.845 281.614 242.359 281.9C242.541 281.995 242.718 282.054 242.895 282.145L247.014 278.027C241.436 276.65 238.65 274.691 238.65 270.654C238.65 266.741 242.232 264.109 247.609 263.645V263.218C247.609 262.186 248.591 261.368 249.827 261.368C251.064 261.368 252.045 262.186 252.045 263.218V263.714C254.35 263.995 256.395 264.568 258.232 265.423C258.532 265.568 258.805 265.768 259.05 265.995L266.15 258.895C261.627 256.118 256.059 254.459 250.009 254.459C234.936 254.464 222.727 264.636 222.727 277.191Z" fill="white"/>
<path d="M251.828 268.414V273.214L255.409 269.632C255.396 269.627 255.382 269.627 255.369 269.623C254.173 269.091 252.978 268.664 251.828 268.414Z" fill="white"/>
<path d="M244.873 270.336C244.873 271.441 245.468 272.186 247.814 272.895V268.091C245.768 268.341 244.873 269.195 244.873 270.336Z" fill="white"/>
<path d="M104.545 331.736H193.305L202.395 322.645H104.545V331.736Z" fill="white"/>
<path d="M104.545 349.918H175.123L184.214 340.827H104.545V349.918Z" fill="white"/>
<path d="M104.545 368.1H156.941L166.032 359.009H104.545V368.1Z" fill="white"/>
<path d="M104.545 386.282H138.759L147.85 377.191H104.545V386.282Z" fill="white"/>
<path d="M316.65 130.118L335.855 149.322L295.455 189.722L250 144.268L153.446 240.827H192.009L250 182.836L295.455 228.291L355.136 168.609L374.346 187.813L395.455 109.009L316.65 130.118Z" fill="#FBE158"/>
</g>
<defs>
<clipPath id="clip0">
<rect width="500" height="500" fill="white"/>
</clipPath>
</defs>
</svg>
