<svg id="圖層_1" data-name="圖層 1" xmlns="http://www.w3.org/2000/svg" viewBox="0 0 174.1 144.55"><defs><style>.cls-1{fill:#2856a5;}</style></defs><path class="cls-1" d="M76.67,51.89l71.24,64.86-9.08,10L67.58,61.86l9.09-10m-.2-4.24L63.34,62.06,139,131l13.13-14.42L76.47,47.65Z" transform="translate(-63.34 -47.65)"/><rect class="cls-1" x="59.51" y="138.55" width="101.35" height="18.5" transform="translate(-136.62 82.12) rotate(-47.68)"/><path class="cls-1" d="M137.5,104.8l12.93,11.78L82.87,190.79,69.93,179,137.5,104.8m-.07-1.41L68.52,179.07,82.94,192.2l68.9-75.68-14.41-13.13Z" transform="translate(-63.34 -47.65)"/><path class="cls-1" d="M163.16,107.63,228,178.88l-10,9.08-64.87-71.24,10-9.09m.2-4.24-14.42,13.13,68.91,75.68,14.41-13.13-68.9-75.68Z" transform="translate(-63.34 -47.65)"/><rect class="cls-1" x="142.36" y="80.06" width="101.35" height="18.5" transform="translate(-73.17 105.59) rotate(-42.32)"/><path class="cls-1" d="M224.25,49.06,236,62l-74.2,67.56-11.78-12.94,74.2-67.56m.07-1.41-75.68,68.9L161.76,131l75.68-68.91L224.32,47.65Z" transform="translate(-63.34 -47.65)"/><path class="cls-1" d="M80.94,96.82l9.54,9.55-9.54,9.54-9.54-9.54,9.54-9.55m0-4.24L67.15,106.37l13.79,13.78,13.79-13.78L80.94,92.58Z" transform="translate(-63.34 -47.65)"/><rect class="cls-1" x="71.69" y="123.93" width="18.5" height="18.5" transform="translate(-133.8 48.59) rotate(-45)"/><path class="cls-1" d="M80.94,120.8l12.37,12.37L80.94,145.54,68.57,133.17,80.94,120.8m0-1.41L67.15,133.17,80.94,147l13.79-13.79L80.94,119.39Z" transform="translate(-63.34 -47.65)"/><rect class="cls-1" x="210.6" y="97.12" width="18.5" height="18.5" transform="translate(-74.17 138.96) rotate(-45)"/><path class="cls-1" d="M219.85,94l12.37,12.37-12.37,12.37-12.37-12.37L219.85,94m0-1.42-13.79,13.79,13.79,13.78,13.78-13.78L219.85,92.58Z" transform="translate(-63.34 -47.65)"/><path class="cls-1" d="M219.85,123.63l9.54,9.54-9.54,9.55-9.55-9.55,9.55-9.54m0-4.24-13.79,13.78L219.85,147l13.78-13.79-13.78-13.78Z" transform="translate(-63.34 -47.65)"/></svg>