<svg width="501" height="501" viewBox="0 0 501 501" fill="none" xmlns="http://www.w3.org/2000/svg">
<path d="M500.545 47.3295V453.579C500.545 479.439 479.53 500.454 453.67 500.454H47.4204C21.561 500.454 0.54541 479.439 0.54541 453.579V47.3295C0.54541 21.4701 21.561 0.454468 47.4204 0.454468H453.67C479.53 0.454468 500.545 21.4701 500.545 47.3295Z" fill="#0484AB"/>
<path d="M500.545 70.376V453.579C500.545 479.438 479.53 500.454 453.67 500.454H47.4204C21.561 500.454 0.54541 479.438 0.54541 453.579V346.235L88.1235 289.907L221.014 313.345L342.342 232.485L412.342 108.188L500.545 70.376Z" fill="#059BBF"/>
<path d="M500.545 133.267V117.642H445.858V86.392H430.233V117.642H391.17V133.267H430.233V180.142H383.358V156.704H367.733V180.142H359.92V195.767H367.733V242.642H320.858H305.233V258.267V305.142H258.358V289.517H242.733V305.142H195.858V297.322H180.233V305.142H133.358V289.517H117.733V305.142H70.8579V297.322H55.2329V305.142H37.8892V320.767H55.2329V367.642H0.54541V383.267H55.2329V430.142H0.54541V445.767H55.2329V500.447H70.8579V445.767H117.733V500.454H133.358V445.767H180.233V500.447H195.858V445.767H242.733V500.454H258.358V445.767H305.233V500.454H320.858V445.767H367.733V500.454H383.358V445.767H430.233V500.454H445.858V445.767H500.545V430.142H445.858V383.267H500.545V367.642H445.858V320.767H500.545V305.142H445.858V258.267H500.545V242.642H445.858V195.767H500.545V180.142H445.858V133.267H500.545V133.267ZM320.858 258.267H367.733V305.142H320.858V258.267ZM367.733 320.767V367.642H320.858V320.767H367.733V320.767ZM305.233 320.767V367.642H258.358V320.767H305.233V320.767ZM242.733 320.767V367.642H195.858V320.767H242.733V320.767ZM180.233 320.767V367.642H133.358V320.767H180.233V320.767ZM70.8579 320.767H117.733V367.642H70.8579V320.767ZM70.8579 430.142V383.267H117.733V430.142H70.8579ZM133.358 430.142V383.267H180.233V430.142H133.358ZM195.858 430.142V383.267H242.733V430.142H195.858ZM258.358 430.142V383.267H305.233V430.142H258.358ZM320.858 430.142V383.267H367.733V430.142H320.858ZM430.233 430.142H383.358V383.267H430.233V430.142ZM430.233 367.642H383.358V320.767H430.233V367.642ZM430.233 305.142H383.358V258.267H430.233V305.142ZM430.233 242.642H383.358V195.767H430.233V242.642Z" fill="#21B2D1"/>
<path d="M500.545 53.3452L417.288 88.978C396.389 78.4312 374.811 101.705 386.702 121.728L340.483 203.986C323.78 201.087 309.631 216.134 313.827 232.744L233.295 286.455C229.389 283.509 224.569 281.705 219.295 281.705C210.545 281.705 203.014 286.556 198.983 293.658L109.53 277.861C104.225 245.869 56.4595 256.181 63.7173 287.064L0.54541 327.642V346.236L72.186 300.158C83.772 309.15 99.8188 305.47 106.788 293.197L196.241 308.978C198.077 320.087 207.663 328.58 219.288 328.58C234.069 328.58 245.834 314.783 241.928 299.4L322.475 245.72C344.764 262.439 372.452 232.728 354.053 211.673L399.006 131.845C418.241 138.65 435.834 119.689 428.545 101.244L500.545 70.3765V53.3452Z" fill="white"/>
<path d="M281.796 195.767L219.296 242.642L156.796 195.767V55.1418H281.796V195.767Z" fill="white"/>
<path d="M219.568 87.5876C223.006 87.5876 225.732 90.3142 225.732 93.7517V95.408C232.131 96.3611 237.818 98.2517 242.912 101.095C245.162 102.4 247.178 104.65 247.178 108.205C247.178 112.705 243.623 116.142 239.123 116.142C237.701 116.142 236.279 115.791 234.974 115.08C231.654 113.299 228.342 111.877 225.138 111.049V129.056C243.154 133.916 250.857 141.26 250.857 154.533C250.857 167.806 240.67 176.338 225.74 177.994V184.275C225.74 187.713 223.013 190.439 219.576 190.439C216.146 190.439 213.412 187.713 213.412 184.275V177.877C204.998 176.806 197.06 173.845 190.068 169.58C187.584 168.041 186.037 165.674 186.037 162.47C186.037 157.845 189.592 154.408 194.209 154.408C195.748 154.408 197.412 155.002 198.826 155.947C203.803 159.15 208.545 161.4 213.99 162.588V143.744C196.927 139.119 188.513 132.603 188.513 118.51C188.513 105.478 198.467 96.7048 213.396 95.1658V93.7439C213.412 90.3142 216.138 87.5876 219.568 87.5876ZM213.998 125.978V109.978C208.31 110.806 205.826 113.65 205.826 117.447C205.826 121.119 207.482 123.603 213.998 125.978ZM225.138 146.713V163.181C230.709 162.353 233.553 159.744 233.553 155.478C233.553 151.572 231.537 148.97 225.138 146.713Z" fill="#F37A10"/>
</svg>
