<svg width="500" height="500" viewBox="0 0 500 500" fill="none" xmlns="http://www.w3.org/2000/svg">
<path d="M484.375 125.001C484.375 128.595 481.719 484.376 250 484.376C18.2813 484.376 15.625 128.595 15.625 125.001C15.625 118.751 19.375 113.126 25.1563 110.626L243.906 16.876C247.812 15.1572 252.187 15.1572 256.094 16.876L474.844 110.626C480.625 113.126 484.375 118.751 484.375 125.001Z" fill="#2197F3"/>
<path d="M223.267 343.751C223.206 343.751 223.146 343.751 223.092 343.751C218.178 343.698 213.586 341.333 210.68 337.381L143.663 246.233C138.552 239.283 140.047 229.501 146.997 224.391C153.947 219.256 163.736 220.781 168.839 227.725L223.564 302.158L331.375 162.334C336.639 155.498 346.458 154.225 353.294 159.503C360.122 164.775 361.397 174.586 356.125 181.422L235.642 337.672C232.681 341.508 228.111 343.751 223.267 343.751Z" fill="white"/>
</svg>
