<svg width="500" height="500" viewBox="0 0 500 500" fill="none" xmlns="http://www.w3.org/2000/svg">
<g clip-path="url(#clip0)">
<path d="M511.512 291.029C474.194 260.792 427.338 242.628 376.288 242.628C254.692 242.628 156.157 344.868 156.157 471.038C156.157 487.897 158.044 504.32 161.398 520.2H511.512V291.029Z" fill="#CDF6FC"/>
<path d="M498.409 327.14C492.119 308.867 471.154 300.927 453.963 308.432L289.389 380.871C294.211 377.281 298.194 372.278 300.5 366.187C307.209 349.002 299.242 329.642 282.68 322.68L194.628 285.7C176.598 278.086 156.367 278.304 138.442 286.244L63.0731 319.417L105.841 424.051L140.853 408.606L251.023 454.832C262.554 459.727 275.552 459.618 286.978 454.506L480.798 369.124C488.975 365.535 494.95 358.791 498.094 350.96C500.82 343.672 501.239 335.08 498.409 327.14Z" fill="white"/>
<path d="M56.2598 489.854L18.1037 314.305L54.2681 298.425L116.01 449.393L56.2598 489.854Z" fill="#FF9D9C"/>
<path d="M349.244 298.317C421.089 298.317 479.331 237.884 479.331 163.337C479.331 88.79 421.089 28.3577 349.244 28.3577C277.399 28.3577 219.157 88.79 219.157 163.337C219.157 237.884 277.399 298.317 349.244 298.317Z" fill="#FDE4A1"/>
<path d="M502.497 339.213C498.304 338.017 493.901 340.736 492.853 344.978C492.329 347.044 492.644 349.328 493.692 351.177C494.74 353.026 496.417 354.332 498.409 354.984C499.143 355.093 499.772 355.202 500.505 355.202C503.965 355.202 507.109 352.7 508.053 349.111C509.206 344.76 506.69 340.301 502.497 339.213Z" fill="#505050"/>
<path d="M484.258 358.465C482.58 359.77 480.798 360.967 478.807 361.837L284.986 447.11C275.552 451.243 264.651 451.352 255.112 447.327L144.836 401.102C142.949 400.232 140.748 400.34 138.861 401.102L111.083 413.392L74.4992 323.769L142.635 293.858C158.568 286.788 176.808 286.679 192.846 293.314L280.898 330.295C290.123 334.21 296.203 343.347 296.203 353.679C296.203 356.834 295.574 360.097 294.316 363.142C292.848 367.058 290.333 370.429 287.188 373.04C284.253 373.366 281.527 373.257 278.487 372.496C277.439 372.278 276.496 371.952 275.343 371.517L198.926 348.241C194.838 346.936 190.33 349.546 189.177 353.679C187.919 358.03 190.33 362.598 194.418 363.903L269.787 386.744C271.359 387.397 273.037 387.941 274.819 388.376C278.068 389.246 281.318 389.681 284.672 389.681C287.083 389.681 289.599 389.355 292.01 388.92C292.324 388.811 292.639 388.593 292.953 388.485C293.163 388.376 293.372 388.485 293.582 388.376L458.261 315.937C461.511 314.523 465.075 313.762 468.639 313.762C479.121 313.762 488.136 319.744 491.805 328.881C493.377 332.905 498.094 334.971 502.078 333.231C503.965 332.47 505.537 330.838 506.376 328.881C507.109 326.923 507.109 324.639 506.376 322.572C500.191 307.345 485.411 297.447 468.639 297.447C462.873 297.447 457.318 298.643 452.077 300.928L310.773 363.142C311.507 359.988 311.926 356.834 311.926 353.679C311.926 336.712 302.073 321.593 286.769 315.176L198.716 278.195C178.904 269.929 156.157 270.038 136.45 278.848L68.3145 308.867L62.7588 295.163C61.0816 291.139 56.3645 289.181 52.486 290.921L16.3216 306.801C12.7576 308.324 10.8708 312.239 11.7094 316.046L49.7606 491.704C50.2847 494.315 52.0667 496.381 54.4777 497.469C55.4211 497.795 56.4694 498.013 57.4128 498.013C58.9852 498.013 60.4527 497.578 61.7106 496.708L121.565 456.246C124.71 454.071 125.968 449.829 124.5 446.24L117.163 428.402L142.006 417.525L249.137 462.446C255.74 465.274 262.659 466.688 269.787 466.688C277.125 466.688 284.358 465.165 291.171 462.12L484.991 376.847C488.136 375.433 491.176 373.584 493.901 371.3C497.361 368.58 497.99 363.468 495.264 359.879C492.748 356.399 487.612 355.746 484.258 358.465ZM62.654 476.586L28.4813 319.092L51.333 309.085L56.8887 322.681C56.8887 322.681 99.7618 427.532 99.8667 427.532L107.519 446.349L62.654 476.586Z" fill="#505050"/>
<path d="M350.502 306.583C426.604 306.583 488.555 242.302 488.555 163.337C488.555 84.3725 426.604 20.2002 350.502 20.2002C274.399 20.2002 212.553 84.3725 212.553 163.337C212.553 242.302 274.399 306.583 350.502 306.583ZM350.502 36.5152C417.904 36.5152 472.832 93.4002 472.832 163.337C472.832 233.274 418.009 290.268 350.502 290.268C282.995 290.268 228.172 233.383 228.172 163.337C228.276 93.4002 283.1 36.5152 350.502 36.5152Z" fill="#505050"/>
<path d="M286.873 177.477C286.873 181.937 290.437 185.635 294.735 185.635H305.218C308.362 195.098 313.499 203.908 320.732 211.413C333.311 224.465 349.978 231.426 366.959 231.426C373.878 231.426 380.796 230.338 387.505 227.945C391.593 226.531 393.899 221.963 392.536 217.612C391.174 213.37 386.771 210.978 382.578 212.391C364.653 218.482 345.156 213.697 331.738 199.775C327.65 195.533 324.61 190.638 322.304 185.526H371.047C375.345 185.526 378.909 181.828 378.909 177.369C378.909 172.909 375.345 169.211 371.047 169.211H317.797C317.377 165.187 317.377 161.162 317.797 157.247H371.047C375.345 157.247 378.909 153.549 378.909 149.089C378.909 144.63 375.345 140.932 371.047 140.932H322.304C324.715 135.82 327.65 130.925 331.738 126.683C345.156 112.761 364.653 107.975 382.578 114.066C386.666 115.48 391.174 113.196 392.536 108.846C393.899 104.604 391.698 99.9267 387.505 98.5128C363.919 90.3553 338.342 96.7725 320.627 115.045C313.394 122.55 308.258 131.36 305.113 140.823H294.63C290.333 140.823 286.769 144.521 286.769 148.98C286.769 153.44 290.333 157.138 294.63 157.138H301.759C301.444 161.162 301.444 165.187 301.759 169.102H294.63C290.437 169.32 286.873 173.018 286.873 177.477Z" fill="#505050"/>
</g>
<defs>
<clipPath id="clip0">
<rect width="500" height="500" fill="white"/>
</clipPath>
</defs>
</svg>
