<svg width="500" height="500" viewBox="0 0 500 500" fill="none" xmlns="http://www.w3.org/2000/svg">
<g clip-path="url(#clip0)">
<path fill-rule="evenodd" clip-rule="evenodd" d="M500 249.995C500 112.152 388.206 0 249.998 0C112.153 0 0 112.152 0 249.995C0 388.197 112.153 500 249.998 500C388.206 500 500 388.197 500 249.995Z" fill="#90DFAA"/>
<path fill-rule="evenodd" clip-rule="evenodd" d="M500 249.995C500 244.932 500 239.86 499.64 234.802L380.617 124.818C375.545 124.818 373.738 128.068 368.675 128.068C291.968 128.068 215.265 128.068 138.923 128.068C133.501 128.068 128.429 128.068 123.013 128.068C123.013 133.495 123.013 138.563 123.013 143.985C123.013 152.671 123.013 161.359 123.013 170.395C123.013 227.558 123.013 285.094 123.013 342.251L119.388 354.913C145.079 366.495 274.605 498.172 280.387 498.172C404.133 483.35 500 377.713 500 249.995V249.995Z" fill="#82C999"/>
<path fill-rule="evenodd" clip-rule="evenodd" d="M135.314 167.144H365.051V339.002H135.314V167.144ZM380.617 339.002V354.913H365.051H135.314H119.388V339.002V167.144V140.375V124.818H135.314H365.051H380.617V140.375V167.144V339.002Z" fill="#324A5E"/>
<path fill-rule="evenodd" clip-rule="evenodd" d="M315.483 145.791C315.483 151.588 320.197 156.285 325.979 156.285C331.409 156.285 336.103 151.588 336.103 145.791C336.103 140.005 331.408 135.312 325.979 135.312C320.197 135.312 315.483 140.005 315.483 145.791Z" fill="#90DFAA"/>
<path fill-rule="evenodd" clip-rule="evenodd" d="M344.073 145.791C344.073 151.588 348.775 156.285 354.567 156.285C360.348 156.285 365.051 151.588 365.051 145.791C365.051 140.005 360.348 135.312 354.567 135.312C348.775 135.312 344.073 140.005 344.073 145.791Z" fill="#FFD05B"/>
<path fill-rule="evenodd" clip-rule="evenodd" d="M286.547 145.791C286.547 151.588 291.251 156.285 297.031 156.285C302.823 156.285 307.525 151.588 307.525 145.791C307.525 140.005 302.823 135.312 297.031 135.312C291.251 135.312 286.547 140.005 286.547 145.791Z" fill="#FD8469"/>
<path d="M365.051 167.144H135.314V339.002H365.051V167.144Z" fill="white"/>
<path d="M329.593 198.982H213.104V210.195H329.593V198.982Z" fill="#E6E6E6"/>
<path d="M329.593 247.828H213.104V259.041H329.593V247.828Z" fill="#E6E6E6"/>
<path d="M201.157 238.053H170.772V268.082H201.157V238.053Z" fill="#90DFAA"/>
<path d="M329.593 296.294H213.104V307.518H329.593V296.294Z" fill="#E6E6E6"/>
<path d="M201.157 286.535H170.772V316.565H201.157V286.535Z" fill="#FFD05B"/>
<path d="M201.157 189.581H170.772V219.606H201.157V189.581Z" fill="#FD8469"/>
<path fill-rule="evenodd" clip-rule="evenodd" d="M347.327 392.54L315.484 363.604C299.211 349.486 289.434 331.757 286.907 313.673C286.547 310.418 286.188 307.517 286.188 304.262V256.868C286.188 256.868 336.473 245.29 347.687 235.161C358.911 245.29 409.196 256.868 409.196 256.868V304.262C409.196 307.517 408.466 310.418 408.107 313.673C405.93 331.757 396.165 349.486 379.888 363.604L347.327 392.54Z" fill="#253645"/>
<path fill-rule="evenodd" clip-rule="evenodd" d="M398.69 314.039C399.06 311.143 399.06 308.962 399.06 306.071V266.635C399.06 266.635 357.093 256.869 347.687 248.182V314.038H398.69V314.039Z" fill="white"/>
<path fill-rule="evenodd" clip-rule="evenodd" d="M347.686 247.828C338.27 256.516 296.314 266.275 296.314 266.275V306.071C296.314 308.962 296.314 311.143 296.671 314.039H347.686V247.828Z" fill="#FD8469"/>
<path fill-rule="evenodd" clip-rule="evenodd" d="M297.031 314.039C299.21 329.586 307.525 344.059 320.916 355.997L347.686 379.521V314.039H297.031Z" fill="white"/>
<path fill-rule="evenodd" clip-rule="evenodd" d="M397.972 314.039C396.165 329.586 387.488 344.059 374.457 355.997L347.687 379.521V314.039H397.972Z" fill="#FD8469"/>
</g>
<defs>
<clipPath id="clip0">
<rect width="500" height="500" fill="white"/>
</clipPath>
</defs>
</svg>
