<svg width="500" height="500" viewBox="0 0 500 500" fill="none" xmlns="http://www.w3.org/2000/svg">
<path d="M203.9 10.6995C197.3 31.0995 193.6 52.8995 193.6 75.4995C193.6 191.499 287.6 285.499 403.6 285.499C434.3 285.499 463.4 278.799 489.7 266.899V10.6995H203.9Z" fill="#FEBECC"/>
<path d="M477.9 441.799H17.9004V481.799H477.9V441.799Z" fill="#FEBECC"/>
<path d="M142 223.099H82.0001V411.899H142V223.099Z" fill="#FF9D9C"/>
<path d="M238.101 168.099H178.101V411.799H238.101V168.099Z" fill="#E9F4BC"/>
<path d="M334.1 237.799H274.1V411.899H334.1V237.799Z" fill="#FF9D9C"/>
<path d="M430.2 148.099H370.2V411.799H430.2V148.099Z" fill="#E9F4BC"/>
<path d="M295.9 164.999C307.94 164.999 317.7 155.239 317.7 143.199C317.7 131.159 307.94 121.399 295.9 121.399C283.861 121.399 274.1 131.159 274.1 143.199C274.1 155.239 283.861 164.999 295.9 164.999Z" fill="#FF9D9C"/>
<path d="M199.8 73.1984C211.84 73.1984 221.6 63.4382 221.6 51.3984C221.6 39.3586 211.84 29.5984 199.8 29.5984C187.761 29.5984 178 39.3586 178 51.3984C178 63.4382 187.761 73.1984 199.8 73.1984Z" fill="#FF9D9C"/>
<path d="M483.1 436.499C481.6 435.099 479.8 434.299 477.8 434.299H97.8003C93.7003 434.299 90.3003 437.699 90.3003 441.799C90.3003 445.999 93.7003 449.299 97.8003 449.299H470.3V474.299H25.3003V449.299H57.8003C61.9003 449.299 65.3003 445.999 65.3003 441.799C65.3003 437.799 62.0003 434.399 57.9003 434.299H57.8003H17.8003C15.8003 434.299 13.9003 435.099 12.5003 436.499C11.1003 437.899 10.3003 439.799 10.3003 441.799V481.799C10.3003 483.799 11.1003 485.799 12.5003 487.099C13.9003 488.499 15.8003 489.299 17.8003 489.299H477.8C479.8 489.299 481.7 488.599 483.1 487.099C484.5 485.699 485.3 483.799 485.3 481.799V441.799C485.3 439.799 484.5 437.899 483.1 436.499Z" fill="#505050"/>
<path d="M77.8003 449.299C81.9424 449.299 85.3003 445.941 85.3003 441.799C85.3003 437.657 81.9424 434.299 77.8003 434.299C73.6582 434.299 70.3003 437.657 70.3003 441.799C70.3003 445.941 73.6582 449.299 77.8003 449.299Z" fill="#505050"/>
<path d="M82.0001 419.299H142C146.1 419.299 149.5 415.899 149.5 411.799V223.099C149.5 218.999 146.1 215.599 142 215.599H82.0001C77.9001 215.599 74.5001 218.999 74.5001 223.099V411.899C74.5001 415.999 77.9001 419.299 82.0001 419.299ZM89.5001 230.599H134.5V404.399H89.5001V230.599Z" fill="#505050"/>
<path d="M178.101 160.599C174.001 160.599 170.601 163.999 170.601 168.099V411.799C170.601 415.899 174.001 419.299 178.101 419.299H238.101C242.201 419.299 245.601 415.899 245.601 411.799V168.099C245.601 163.999 242.201 160.599 238.101 160.599H178.101ZM230.601 404.299H185.601V175.599H230.601V404.299Z" fill="#505050"/>
<path d="M274.1 230.299C270 230.299 266.6 233.699 266.6 237.799V411.899C266.6 415.999 270 419.399 274.1 419.399H334.1C338.2 419.399 341.6 415.999 341.6 411.899V237.799C341.6 233.699 338.2 230.299 334.1 230.299H274.1ZM326.6 404.299H281.6V245.299H326.6V404.299Z" fill="#505050"/>
<path d="M362.7 148.099V411.799C362.7 415.899 366.1 419.299 370.2 419.299H430.2C434.3 419.299 437.7 415.899 437.7 411.799V148.099C437.7 143.999 434.3 140.599 430.2 140.599H370.2C366 140.599 362.7 143.999 362.7 148.099ZM377.7 155.599H422.7V404.299H377.7V155.599Z" fill="#505050"/>
<path d="M103.8 157.199C105.8 157.199 107.7 156.399 109.2 154.899L185.2 76.499C189.5 78.999 194.5 80.599 199.8 80.599C205.5 80.599 210.8 78.899 215.3 76.099L270.4 128.999C268.1 133.199 266.6 137.999 266.6 143.099C266.6 159.199 279.7 172.399 295.9 172.399C312 172.399 325.2 159.299 325.2 143.099C325.2 136.599 323 130.699 319.4 125.799L387.2 40.999L388.5 62.099C388.7 66.099 392 69.199 396 69.199C396.2 69.199 396.3 69.199 396.5 69.199C400.6 68.999 403.8 65.399 403.5 61.299L401.2 22.599C401.1 20.599 400.2 18.799 398.7 17.399C397.2 15.999 395.3 15.399 393.3 15.499L391.7 15.599C391.5 15.599 391.3 15.599 391 15.599L354.5 17.799C350.4 17.999 347.2 21.599 347.5 25.699C347.8 29.799 351.3 32.999 355.4 32.699L375.6 31.499L307.8 116.299C304.2 114.699 300.2 113.799 296 113.799C290.5 113.799 285.3 115.399 280.9 118.099L225.6 64.999C227.8 60.899 229.2 56.199 229.2 51.199C229.2 35.099 216.1 21.899 199.9 21.899C183.8 21.899 170.6 34.999 170.6 51.199C170.6 56.499 172.1 61.499 174.7 65.799L98.5 144.299C95.6 147.299 95.7 151.999 98.7 154.899C100 156.499 101.9 157.199 103.8 157.199ZM310.1 143.199C310.1 151.099 303.7 157.499 295.8 157.499C287.9 157.499 281.5 151.099 281.5 143.199C281.5 135.299 287.9 128.899 295.8 128.899C303.7 128.899 310.1 135.299 310.1 143.199ZM199.8 37.099C207.7 37.099 214.1 43.499 214.1 51.399C214.1 59.299 207.7 65.699 199.8 65.699C191.9 65.699 185.5 59.299 185.5 51.399C185.5 43.499 192 37.099 199.8 37.099Z" fill="#505050"/>
</svg>
